<svg width="1360" height="174" viewBox="0 0 1360 174" fill="none" xmlns="http://www.w3.org/2000/svg">
<mask id="mask0_846_435" style="mask-type:alpha" maskUnits="userSpaceOnUse" x="0" y="0" width="1360" height="174">
<rect y="0.5" width="1360" height="173" fill="#D9D9D9"/>
</mask>
<g mask="url(#mask0_846_435)">
<path d="M1274.83 178.795H1231.75V5.20495H1303.14C1342.52 5.20495 1360 26.5964 1360 61.0194C1360 98.1471 1340.8 119.539 1301.17 119.539H1274.83V178.795ZM1274.83 43.562V82.4109H1294.28C1309.54 82.4109 1315.94 76.2639 1315.94 62.9865C1315.94 50.4466 1311.01 43.562 1294.77 43.562H1274.83Z" fill="#21224B"/>
<path d="M1133.6 181.5C1083.38 181.5 1062.21 154.207 1062.21 109.703V5.20495H1105.29V107.982C1105.29 127.898 1111.69 141.668 1133.6 141.668C1155.75 141.668 1161.91 127.898 1161.91 107.982V5.20495H1204.99V109.703C1204.99 154.207 1183.82 181.5 1133.6 181.5Z" fill="#21224B"/>
<path d="M949.614 181.5C897.921 181.5 857.797 145.601 857.797 91.9998C857.797 38.3983 897.921 2.5 949.614 2.5C1002.29 2.5 1041.68 38.3983 1041.68 91.9998C1041.68 145.601 1002.29 181.5 949.614 181.5ZM949.614 141.667C978.661 141.667 997.123 121.259 997.123 91.9998C997.123 62.7403 978.661 42.3324 949.614 42.3324C921.798 42.3324 902.106 62.7403 902.106 91.9998C902.106 121.259 921.798 141.667 949.614 141.667Z" fill="#21224B"/>
<path d="M809.773 104.294L857.282 178.795H806.081L767.188 115.359H754.388V178.795H711.31V5.20495H780.481C819.866 5.20495 837.835 26.8423 837.835 59.0524C837.835 82.6567 827.251 97.6553 809.773 104.294ZM772.111 43.562H754.388V81.6732H771.619C786.142 81.6732 793.281 76.018 793.281 62.7406C793.281 49.9549 787.619 43.562 772.111 43.562Z" fill="#21224B"/>
<path d="M599.287 113.883V79.46H691.104V88.5576C691.104 145.847 659.35 181.5 603.964 181.5C548.578 181.5 510.916 145.601 510.916 91.9998C510.916 38.3983 548.579 2.5 602.241 2.5C639.657 2.5 667.965 19.7115 678.55 45.7747L639.903 65.6908C633.995 51.4299 620.457 42.3324 601.749 42.3324C573.687 42.3324 555.225 62.7403 555.225 91.9998C555.225 121.751 571.717 141.913 604.456 141.913C630.057 141.913 641.872 129.865 646.796 113.883H599.287Z" fill="#21224B"/>
<path d="M406.161 104.294L453.669 178.795H402.468L363.575 115.359H350.775V178.795H307.698V5.20495H376.868C416.253 5.20495 434.223 26.8423 434.223 59.0524C434.223 82.6567 423.638 97.6553 406.161 104.294ZM368.499 43.562H350.775V81.6732H368.006C382.53 81.6732 389.668 76.018 389.668 62.7406C389.668 49.9549 384.007 43.562 368.499 43.562Z" fill="#21224B"/>
<path d="M252.804 89.2955C274.22 94.7048 285.543 107.982 285.543 131.587C285.543 157.158 272.251 178.795 226.219 178.795H153.849V5.20495H224.742C263.881 5.20495 281.112 22.4165 281.112 48.7255C281.112 68.3958 271.512 82.6567 252.804 89.2955ZM215.881 41.595H196.926V75.0345H215.634C229.912 75.0345 237.296 69.3793 237.296 58.3148C237.296 47.742 231.881 41.595 215.881 41.595ZM196.926 142.159H219.081C235.573 142.159 241.235 135.767 241.235 125.44C241.235 113.392 232.619 109.212 219.081 109.212H196.926V142.159Z" fill="#21224B"/>
<path d="M98.9555 89.2955C120.371 94.7048 131.695 107.982 131.695 131.587C131.695 157.158 118.402 178.795 72.3705 178.795H0V5.20495H70.8935C110.033 5.20495 127.264 22.4165 127.264 48.7255C127.264 68.3958 117.664 82.6567 98.9555 89.2955ZM62.0318 41.595H43.0777V75.0345H61.7857C76.0628 75.0345 83.4476 69.3793 83.4476 58.3148C83.4476 47.742 78.0321 41.595 62.0318 41.595ZM43.0777 142.159H65.2319C81.7245 142.159 87.3861 135.767 87.3861 125.44C87.3861 113.392 78.7706 109.212 65.2319 109.212H43.0777V142.159Z" fill="#21224B"/>
</g>
</svg>
