<svg width="1556" height="1194" viewBox="0 0 1556 1194" fill="none" xmlns="http://www.w3.org/2000/svg">
<g opacity="0.25">
<path d="M0 490.035C0 670.431 37.0604 812.831 111.27 917.188C185.436 1021.55 312.627 1113.68 492.756 1193.65L628.599 933.288C517.819 880.619 441.201 828.172 398.834 776.038C356.422 723.859 332.83 662.181 328.013 591.004H628.599V0H0V490.035Z" fill="#BCBEC0"/>
<path d="M1444.73 276.459C1370.56 172.101 1243.37 79.963 1063.24 0L927.401 260.359C1038.23 313.029 1114.8 365.475 1157.17 417.609C1199.58 469.788 1223.17 531.466 1227.99 602.643H927.401V1193.65H1556V703.612C1556 523.216 1518.94 380.816 1444.73 276.459Z" fill="#BCBEC0"/>
</g>
</svg>
