<svg width="246" height="146" viewBox="0 0 246 146" fill="none" xmlns="http://www.w3.org/2000/svg">
<path d="M0.123581 99.8987H25.952V103.126H3.53441V120.951H23.0849V124.178H3.53441V142.127H26.5946V145.355H0.123581V99.8987Z" fill="white"/>
<path d="M64.7811 99.8987H68.4391L51.5826 145.33H47.6775L30.8211 99.8987H34.4791L49.6548 141.283L64.7811 99.8987Z" fill="white"/>
<path d="M75.3596 99.8987H101.188V103.126H78.7704V120.951H98.3209V124.178H78.7704V142.127H101.831V145.355H75.3596V99.8987Z" fill="white"/>
<path d="M110.728 145.33V99.8987H113.942L141.105 139.148V99.8987H144.491V145.33H141.278L114.115 106.08V145.33H110.728Z" fill="white"/>
<path d="M167.057 145.33V103.101H152.177V99.8738H185.297V103.101H170.443V145.33H167.057Z" fill="white"/>
<path d="M189.721 135.871L192.737 134.382C194.59 140.116 199.731 142.748 206.059 142.748C213.35 142.748 217.008 139.074 217.008 133.364C217.008 127.257 212.707 125.519 205.144 123.905C198.026 122.416 191.377 120.43 191.377 111.666C191.377 104.194 196.37 99.2532 204.823 99.2532C211.422 99.2532 216.538 102.332 218.985 107.744L215.97 109.233C213.918 104.789 210.013 102.481 204.897 102.481C198.496 102.481 194.838 105.956 194.838 111.616C194.838 118.369 199.781 119.337 206.182 120.703C214.437 122.44 220.542 125.072 220.542 133.438C220.542 141.233 215.154 146 206.059 146C198.421 146 191.97 142.723 189.721 135.896V135.871Z" fill="white"/>
<path d="M63.2487 61.0216C63.2487 73.36 56.8719 83.8116 34.7509 83.8116H0V0H34.0342C52.8185 0 61.0984 8.31661 61.0984 21.0274C61.0984 30.5356 56.5012 37.4123 47.5045 40.6149C57.7864 43.2216 63.224 49.6514 63.224 61.0464L63.2487 61.0216ZM20.6874 17.5766V33.7381H29.6841C36.5305 33.7381 40.0896 31.0073 40.0896 25.6698C40.0896 20.3323 37.4944 17.6014 29.8077 17.6014H20.7121L20.6874 17.5766ZM31.3154 66.1357C39.2246 66.1357 41.9433 63.0573 41.9433 58.0673C41.9433 52.2581 37.8157 50.2224 31.3154 50.2224H20.6874V66.1357H31.3154Z" fill="white"/>
<path d="M137.125 61.0216C137.125 73.36 130.749 83.8116 108.628 83.8116H73.8766V0H107.911C126.695 0 134.975 8.31661 134.975 21.0274C134.975 30.5356 130.378 37.4123 121.381 40.6149C131.663 43.2216 137.101 49.6514 137.101 61.0464L137.125 61.0216ZM94.564 17.5766V33.7381H103.561C110.407 33.7381 113.966 31.0073 113.966 25.6698C113.966 20.3323 111.371 17.6014 103.684 17.6014H94.5888L94.564 17.5766ZM105.217 66.1357C113.126 66.1357 115.845 63.0573 115.845 58.0673C115.845 52.2581 111.717 50.2224 105.217 50.2224H94.5888V66.1357H105.217Z" fill="white"/>
<path d="M217.848 83.8364H193.256L174.57 53.2015H168.416V83.8364H147.729V0H180.947C199.855 0 208.481 10.4516 208.481 25.9925C208.481 37.3875 203.389 44.6366 195.011 47.8391L217.824 83.8116L217.848 83.8364ZM168.441 18.52V36.9158H176.721C183.691 36.9158 187.126 34.185 187.126 27.78C187.126 21.3749 184.407 18.52 176.968 18.52H168.441Z" fill="white"/>
<path d="M222.001 73.0124C222.001 66.235 227.092 61.3692 233.939 61.3692C240.785 61.3692 246 66.235 246 73.0124C246 79.7898 240.908 84.8791 233.939 84.8791C226.969 84.8791 222.001 79.8891 222.001 73.0124Z" fill="white"/>
</svg>
