<svg width="247" height="146" viewBox="0 0 247 146" fill="none" xmlns="http://www.w3.org/2000/svg">
<path d="M0 145.011V99.6792H14.1196C24.5978 99.6792 28.4373 105.005 28.4373 112.659C28.4373 121.726 22.9134 126.333 13.7976 126.333H3.39365V145.011H0ZM3.39365 123.187H13.3517C20.8574 123.187 24.9198 120.115 24.9198 112.659C24.9198 105.847 21.5757 102.899 13.6242 102.899H3.39365V123.187Z" fill="#21224B"/>
<path d="M69.3341 145.011H65.0983L50.3842 125.491H40.872V145.011H37.4784V99.6792H50.9539C61.3578 99.6792 65.2221 104.955 65.2221 112.263C65.2221 119.57 61.1844 124.079 54.1742 124.971L69.3341 145.011ZM40.8968 102.875V122.271H50.1365C57.444 122.271 61.7046 119.372 61.7046 112.263C61.7046 105.575 58.1128 102.899 50.409 102.899H40.8968V102.875Z" fill="#21224B"/>
<path d="M63.4383 60.8876C63.4383 73.1989 57.0473 83.6276 34.8771 83.6276H0.073566V0H34.1835C53.0096 0 61.308 8.29835 61.308 20.9812C61.308 30.4686 56.7005 37.3302 47.6838 40.5257C57.9886 43.1267 63.4383 49.5424 63.4383 60.9124V60.8876ZM20.8071 17.538V33.6641H29.8238C36.6854 33.6641 40.2525 30.9392 40.2525 25.6134C40.2525 20.2876 37.6515 17.5628 29.9476 17.5628H20.8318L20.8071 17.538ZM31.4587 65.9905C39.3855 65.9905 42.1103 62.9189 42.1103 57.9398C42.1103 52.1434 37.9735 50.1121 31.4587 50.1121H20.8071V65.9905H31.4587Z" fill="#21224B"/>
<path d="M137.479 60.8877C137.479 73.1989 131.088 83.6276 108.918 83.6276H74.0892V3.80954e-05H108.199C127.025 3.80954e-05 135.324 8.29839 135.324 20.9812C135.324 30.4686 130.716 37.3302 121.699 40.5257C132.004 43.1267 137.454 49.5424 137.454 60.9124L137.479 60.8877ZM94.8475 17.538V33.6641H103.864C110.726 33.6641 114.293 30.9393 114.293 25.6135C114.293 20.2877 111.692 17.5628 103.988 17.5628H94.8723L94.8475 17.538ZM105.499 65.9905C113.426 65.9905 116.151 62.9189 116.151 57.9399C116.151 52.1434 112.014 50.1122 105.499 50.1122H94.8475V65.9905H105.499Z" fill="#21224B"/>
<path d="M218.407 83.6524H193.76L175.032 53.0847H168.864V83.6524H148.131V3.80954e-05H181.423C200.373 3.80954e-05 209.019 10.4287 209.019 25.9355C209.019 37.3055 203.916 44.5387 195.518 47.7341L218.382 83.6276L218.407 83.6524ZM168.889 18.4794V36.8348H177.188C184.173 36.8348 187.616 34.11 187.616 27.719C187.616 21.328 184.891 18.4794 177.435 18.4794H168.889Z" fill="#21224B"/>
<path d="M222.543 72.8521C222.543 66.0896 227.646 61.2344 234.508 61.2344C241.37 61.2344 246.596 66.0896 246.596 72.8521C246.596 79.6147 241.493 84.6927 234.508 84.6927C227.522 84.6927 222.543 79.7137 222.543 72.8521Z" fill="#21224B"/>
</svg>
