<svg width="246" height="146" viewBox="0 0 246 146" fill="none" xmlns="http://www.w3.org/2000/svg">
<path d="M0 145.354V99.9156H13.517C28.1955 99.9156 36.1278 109.624 36.1278 122.635C36.1278 135.646 28.3685 145.354 13.7147 145.354H0ZM3.38543 142.151H13.7641C26.3916 142.151 32.6682 133.858 32.6682 122.635C32.6682 111.412 26.1939 103.119 13.5912 103.119H3.38543V142.151Z" fill="white"/>
<path d="M45.0238 145.354V99.9156H48.4092V145.354H45.0238Z" fill="white"/>
<path d="M80.0149 122.561H102.23V123.082C102.156 137.235 94.1003 146 80.8303 146C66.6708 146 57.33 135.894 57.33 122.635C57.33 109.376 66.8685 99.2701 80.1384 99.2701C89.0345 99.2701 96.1019 103.764 99.2896 110.866L96.1513 112.355C93.5813 106.297 87.7001 102.498 80.1384 102.498C68.7466 102.498 60.8637 111.188 60.8637 122.635C60.8637 134.082 68.5489 142.772 80.8551 142.772C91.4314 142.772 97.7081 136.267 98.7954 125.714H80.0396V122.561H80.0149Z" fill="white"/>
<path d="M110.113 145.354V99.9156H113.499V145.354H110.113Z" fill="white"/>
<path d="M135.294 145.354V103.119H120.418V99.8908H153.531V103.119H138.679V145.354H135.294Z" fill="white"/>
<path d="M184.049 145.354L179.379 132.939H157.41L152.74 145.354H149.083L166.455 99.9156H170.359L187.731 145.354H184.049ZM168.357 103.764L158.621 129.712H178.168L168.357 103.764Z" fill="white"/>
<path d="M193.39 99.9156H196.775V142.151H219.584V145.379H193.39V99.9156Z" fill="white"/>
<path d="M63.2854 61.032C63.2854 73.3724 56.9099 83.8259 34.7934 83.8259H0.0494224V0H34.0767C52.8573 0 61.1355 8.31803 61.1355 21.031C61.1355 30.5408 56.5392 37.4187 47.5443 40.6218C57.8242 43.2289 63.2607 49.6599 63.2607 61.0568L63.2854 61.032ZM20.7327 17.5796V33.7439H29.7276C36.5726 33.7439 40.131 31.0126 40.131 25.6741C40.131 20.3357 37.5363 17.6044 29.8511 17.6044H20.7574L20.7327 17.5796ZM31.3832 66.1469C39.2908 66.1469 42.009 63.068 42.009 58.0772C42.009 52.267 37.8823 50.2309 31.3832 50.2309H20.7574V66.1469H31.3832Z" fill="white"/>
<path d="M137.147 61.032C137.147 73.3724 130.772 83.8259 108.655 83.8259H73.9112V0H107.939C126.719 0 134.997 8.31803 134.997 21.031C134.997 30.5408 130.401 37.4187 121.406 40.6218C131.686 43.2289 137.122 49.6599 137.122 61.0568L137.147 61.032ZM94.5945 17.5796V33.7439H103.589C110.434 33.7439 113.993 31.0126 113.993 25.6741C113.993 20.3357 111.398 17.6044 103.713 17.6044H94.6192L94.5945 17.5796ZM105.245 66.1469C113.153 66.1469 115.871 63.068 115.871 58.0772C115.871 52.267 111.744 50.2309 105.245 50.2309H94.6192V66.1469H105.245Z" fill="white"/>
<path d="M217.879 83.8507H193.291L174.609 53.2105H168.456V83.8507H147.773V0H180.985C199.889 0 208.513 10.4534 208.513 25.9969C208.513 37.3939 203.423 44.6442 195.046 47.8473L217.854 83.8259L217.879 83.8507ZM168.481 18.5231V36.9221H176.759C183.728 36.9221 187.163 34.1908 187.163 27.7847C187.163 21.3786 184.444 18.5231 177.006 18.5231H168.481Z" fill="white"/>
<path d="M222.005 73.0248C222.005 66.2463 227.096 61.3796 233.941 61.3796C240.786 61.3796 246 66.2463 246 73.0248C246 79.8034 240.91 84.8935 233.941 84.8935C226.972 84.8935 222.005 79.9027 222.005 73.0248Z" fill="white"/>
</svg>
