<svg width="123" height="47" viewBox="0 0 123 47" fill="none" xmlns="http://www.w3.org/2000/svg">
<path d="M61.3202 38.5668H67.4095V38.7073C67.3894 42.5491 65.1781 44.9252 61.5487 44.9252C57.6706 44.9252 55.1099 42.181 55.1099 38.5868C55.1099 34.9927 57.7244 32.2485 61.3538 32.2485C63.7936 32.2485 65.7225 33.4734 66.5963 35.3943L65.736 35.7958C65.037 34.156 63.4172 33.1253 61.3471 33.1253C58.2218 33.1253 56.0643 35.4813 56.0643 38.5935C56.0643 41.7058 58.168 44.0618 61.5353 44.0618C64.4321 44.0618 66.146 42.2948 66.4484 39.4302H61.3068V38.5735L61.3202 38.5668Z" fill="white"/>
<path d="M78.6002 44.7511H77.4442L73.4249 39.4436H70.8306V44.7511H69.9031V32.4159H73.5863C76.4293 32.4159 77.4778 33.8482 77.4778 35.8427C77.4778 37.8372 76.3755 39.0554 74.46 39.303L78.6002 44.7511ZM70.8239 33.2926V38.5668H73.351C75.3539 38.5668 76.5099 37.7837 76.5099 35.8427C76.5099 34.0289 75.5287 33.2926 73.4249 33.2926H70.8239Z" fill="white"/>
<path d="M79.8033 38.5868C79.8033 34.986 82.4514 32.2485 86.1548 32.2485C89.8581 32.2485 92.5062 34.9927 92.5062 38.5868C92.5062 42.181 89.8581 44.9252 86.1548 44.9252C82.4514 44.9252 79.8033 42.181 79.8033 38.5868ZM91.5586 38.5868C91.5586 35.4746 89.3473 33.1186 86.1548 33.1186C82.9622 33.1186 80.7711 35.4746 80.7711 38.5868C80.7711 41.6991 82.9824 44.0551 86.1548 44.0551C89.3271 44.0551 91.5586 41.6991 91.5586 38.5868Z" fill="white"/>
<path d="M95.0804 39.805V32.4159H96.0079V39.7715C96.0079 42.5491 97.0632 44.0551 99.7247 44.0551C102.386 44.0551 103.442 42.5491 103.442 39.7715V32.4159H104.369V39.805C104.369 43.0511 102.951 44.9252 99.718 44.9252C96.4851 44.9252 95.067 43.0578 95.067 39.805H95.0804Z" fill="white"/>
<path d="M107.461 44.7511V32.4159H111.319C114.175 32.4159 115.23 33.8682 115.23 35.9431C115.23 38.4061 113.725 39.6644 111.231 39.6644H108.388V44.7511H107.461ZM108.395 38.8144H111.117C113.167 38.8144 114.276 37.9778 114.276 35.9498C114.276 34.0958 113.362 33.2926 111.191 33.2926H108.402V38.8144H108.395Z" fill="white"/>
<path d="M72.9814 21.8743C72.9814 25.2275 71.2339 28.0587 65.1848 28.0587H55.6744V5.31572H64.9899C70.1316 5.31572 72.3966 7.57128 72.3966 11.0182C72.3966 13.595 71.133 15.4624 68.6731 16.3325C71.4893 17.0419 72.9746 18.7821 72.9746 21.8743H72.9814ZM61.3336 10.0812V14.4651H63.7936C65.6688 14.4651 66.6433 13.7222 66.6433 12.2765C66.6433 10.8308 65.9309 10.0879 63.8272 10.0879H61.3336V10.0812ZM64.2439 23.2598C66.4148 23.2598 67.1541 22.4231 67.1541 21.0711C67.1541 19.4916 66.0183 18.9428 64.2439 18.9428H61.3336V23.2598H64.2439Z" fill="white"/>
<path d="M93.1985 21.8743C93.1985 25.2275 91.451 28.0587 85.402 28.0587H75.8916V5.31572H85.2071C90.3488 5.31572 92.6138 7.57128 92.6138 11.0182C92.6138 13.595 91.3502 15.4624 88.8903 16.3325C91.7064 17.0419 93.1918 18.7821 93.1918 21.8743H93.1985ZM81.5508 10.0812V14.4651H84.0107C85.8859 14.4651 86.8605 13.7222 86.8605 12.2765C86.8605 10.8308 86.1481 10.0879 84.0443 10.0879H81.5508V10.0812ZM84.4678 23.2598C86.6387 23.2598 87.378 22.4231 87.378 21.0711C87.378 19.4916 86.2421 18.9428 84.4678 18.9428H81.5575V23.2598H84.4678Z" fill="white"/>
<path d="M115.298 28.0587H108.57L103.455 19.7459H101.775V28.0587H96.1155V5.31572H105.209C110.384 5.31572 112.75 8.15357 112.75 12.3702C112.75 15.4624 111.359 17.4301 109.06 18.3002L115.304 28.0654L115.298 28.0587ZM101.775 10.3422V15.3352H104.04C105.949 15.3352 106.889 14.5923 106.889 12.8521C106.889 11.1119 106.143 10.3422 104.107 10.3422H101.775Z" fill="white"/>
<path d="M116.433 25.1271C116.433 23.2932 117.825 21.968 119.7 21.968C121.575 21.968 123 23.2865 123 25.1271C123 26.9677 121.609 28.3465 119.7 28.3465C117.791 28.3465 116.433 26.9945 116.433 25.1271Z" fill="white"/>
<path d="M46.8227 12.1159C47.5217 10.0745 46.7085 9.05713 46.1573 8.62878C45.1021 7.80553 43.6638 7.96616 41.8827 9.11067C41.103 9.60596 38.6565 9.27131 37.1443 8.51499C36.6469 7.50434 35.9479 6.50039 35.128 5.66376L34.355 7.65159C34.8994 8.3142 35.3498 9.05713 35.6858 9.8603C35.6992 9.8603 35.7127 9.8603 35.7261 9.87368C37.3459 10.9245 41.103 11.8481 42.9043 10.6969C44.8198 9.4721 45.5726 9.93392 45.0282 11.5135C44.4166 13.2871 41.056 15.2214 35.921 16.1049C35.8135 16.4329 35.6858 16.7608 35.5379 17.0687C33.8845 22.9318 40.6594 25.087 40.6729 33.1989C40.6863 41.4515 30.9272 46.2905 19.8575 44.8515L19.1518 46.6587C20.7044 46.8862 22.2435 47 23.7558 47C28.6891 47 33.2864 45.7952 36.7948 43.4259C40.525 40.9093 42.575 37.275 42.5682 33.1922C42.5682 28.6209 40.6527 25.6826 39.1136 23.3267C37.6148 21.0243 36.8351 19.6991 37.319 17.7514C42.3801 16.6939 45.9826 14.5789 46.8227 12.1159Z" fill="white"/>
<path d="M19.8575 44.8515C17.317 44.5236 14.7092 43.861 12.1282 42.8369C2.54391 39.0152 1.82475 28.7614 1.88524 25.1271C1.88524 24.9464 2.14065 24.8929 2.20786 25.0669C3.45799 28.0319 9.01636 28.7614 14.4739 26.4657C18.0428 24.9665 20.9464 24.9531 23.2517 25.3346C23.8701 25.435 24.5086 25.2275 24.9186 24.759C26.162 23.32 23.5811 21.8275 23.5811 21.8275C19.9651 19.6254 18.9905 16.6738 18.9905 16.6738C18.5671 15.6364 18.3319 14.4986 18.3319 13.3139C18.3319 8.62878 21.9411 4.78028 26.5451 4.372C27.2508 3.04008 28.9781 2.43771 28.9781 2.43771C28.6488 3.62907 28.8235 3.97042 28.8235 3.97042C30.7189 2.63181 32.5941 3.24757 32.5941 3.24757C31.5926 3.72947 30.9407 4.35192 30.524 4.90744C32.0362 5.46966 33.3469 6.43346 34.3483 7.65159L35.1212 5.66376C34.7583 5.28895 34.3685 4.9476 33.9585 4.65311C35.1078 3.85664 34.8994 2.02274 33.4947 1.55423L33.1923 1.45383C33.0713 1.41367 32.4261 1.21288 31.5053 1.21288C31.4313 1.21288 31.3507 1.21288 31.2767 1.21288C31.4851 0.469955 30.7659 -0.199349 30.0333 0.0549866L28.3531 0.643974C28.138 0.717598 26.5787 1.29989 25.4764 2.59834C20.3549 3.48852 16.4499 7.94609 16.4499 13.2938C16.4499 13.7891 16.4835 14.2844 16.5507 14.773C16.5507 14.773 17.1624 20.4286 22.4116 23.3066C19.508 23.0255 16.6583 23.4873 13.7413 24.7122C10.6899 25.9905 7.38313 26.2783 5.31974 25.4417C4.8291 25.2409 4.19059 24.8862 3.95535 24.3173C3.57225 23.4137 2.63129 22.9117 1.67017 23.0991C0.702325 23.2865 0.0167702 24.0964 0.00332792 25.0803C-0.0571623 28.5607 0.594787 40.2534 11.4292 44.5704C13.9631 45.5811 16.5709 46.2705 19.1585 46.6453L19.8643 44.8381L19.8575 44.8515Z" fill="white"/>
</svg>
