<svg width="712" height="712" viewBox="0 0 712 712" fill="none" xmlns="http://www.w3.org/2000/svg">
<mask id="path-1-inside-1_86_476" fill="white">
<path fill-rule="evenodd" clip-rule="evenodd" d="M266.727 88.8398L355.566 1.26475e-05L444.406 88.8398L355.566 177.679L266.727 88.8398ZM533.551 177.782L444.585 266.748L355.62 177.952L177.858 355.544L355.62 533.475L444.585 444.509L533.381 533.475L622.347 444.509L711.312 355.544L533.551 177.782ZM444.585 444.509L533.551 355.544L444.585 266.748L355.62 355.544L444.585 444.509ZM0 355.69L88.8397 266.851L177.679 355.69L88.8397 444.53L0 355.69ZM266.851 622.248L355.81 533.288L444.77 622.248L355.81 711.207L266.851 622.248Z"/>
</mask>
<path d="M355.566 1.26475e-05L356.981 -1.4142L355.566 -2.82841L354.152 -1.4142L355.566 1.26475e-05ZM266.727 88.8398L265.312 87.4255L263.898 88.8398L265.312 90.254L266.727 88.8398ZM444.406 88.8398L445.82 90.254L447.234 88.8398L445.82 87.4255L444.406 88.8398ZM355.566 177.679L354.152 179.094L355.566 180.508L356.981 179.094L355.566 177.679ZM533.551 177.782L534.965 176.368L533.551 174.954L532.137 176.368L533.551 177.782ZM355.62 177.952L357.033 176.537L355.619 175.126L354.206 176.537L355.62 177.952ZM177.858 355.544L176.445 354.129L175.03 355.542L176.444 356.957L177.858 355.544ZM355.62 533.475L354.205 534.888L355.619 536.304L357.034 534.889L355.62 533.475ZM533.381 533.475L531.965 534.888L533.38 536.305L534.795 534.889L533.381 533.475ZM622.347 444.509L620.932 443.095L622.347 444.509ZM711.312 355.544L712.726 356.958L714.141 355.544L712.726 354.129L711.312 355.544ZM533.551 355.544L534.965 356.958L536.381 355.542L534.964 354.128L533.551 355.544ZM355.62 355.544L354.207 354.128L352.79 355.542L354.205 356.958L355.62 355.544ZM88.8397 266.851L90.254 265.436L88.8397 264.022L87.4255 265.436L88.8397 266.851ZM0 355.69L-1.41421 354.276L-2.82843 355.69L-1.41421 357.105L0 355.69ZM177.679 355.69L179.094 357.105L180.508 355.69L179.094 354.276L177.679 355.69ZM88.8397 444.53L87.4255 445.944L88.8397 447.359L90.254 445.944L88.8397 444.53ZM355.81 533.288L357.225 531.874L355.81 530.459L354.396 531.874L355.81 533.288ZM266.851 622.248L265.436 620.833L264.022 622.248L265.436 623.662L266.851 622.248ZM444.77 622.248L446.184 623.662L447.599 622.248L446.184 620.833L444.77 622.248ZM355.81 711.207L354.396 712.622L355.81 714.036L357.225 712.622L355.81 711.207ZM354.152 -1.4142L265.312 87.4255L268.141 90.254L356.981 1.41423L354.152 -1.4142ZM445.82 87.4255L356.981 -1.4142L354.152 1.41423L442.992 90.254L445.82 87.4255ZM356.981 179.094L445.82 90.254L442.992 87.4255L354.152 176.265L356.981 179.094ZM265.312 90.254L354.152 179.094L356.981 176.265L268.141 87.4255L265.312 90.254ZM445.999 268.162L534.965 179.197L532.137 176.368L443.171 265.334L445.999 268.162ZM445.998 265.332L357.033 176.537L354.207 179.368L443.172 268.163L445.998 265.332ZM354.206 176.537L176.445 354.129L179.272 356.959L357.033 179.367L354.206 176.537ZM176.444 356.957L354.205 534.888L357.035 532.061L179.273 354.13L176.444 356.957ZM357.034 534.889L445.999 445.923L443.171 443.095L354.205 532.061L357.034 534.889ZM534.797 532.062L446.001 443.096L443.17 445.922L531.965 534.888L534.797 532.062ZM620.932 443.095L531.967 532.061L534.795 534.889L623.761 445.923L620.932 443.095ZM709.898 354.129L620.932 443.095L623.761 445.923L712.726 356.958L709.898 354.129ZM532.137 179.197L709.898 356.958L712.726 354.129L534.965 176.368L532.137 179.197ZM445.999 445.923L534.965 356.958L532.137 354.129L443.171 443.095L445.999 445.923ZM534.964 354.128L445.998 265.332L443.172 268.163L532.138 356.959L534.964 354.128ZM357.033 356.959L445.998 268.163L443.172 265.332L354.207 354.128L357.033 356.959ZM445.999 443.095L357.034 354.129L354.205 356.958L443.171 445.923L445.999 443.095ZM87.4255 265.436L-1.41421 354.276L1.41421 357.105L90.254 268.265L87.4255 265.436ZM179.094 354.276L90.254 265.436L87.4255 268.265L176.265 357.105L179.094 354.276ZM90.254 445.944L179.094 357.105L176.265 354.276L87.4255 443.116L90.254 445.944ZM-1.41421 357.105L87.4255 445.944L90.254 443.116L1.41421 354.276L-1.41421 357.105ZM354.396 531.874L265.436 620.833L268.265 623.662L357.225 534.702L354.396 531.874ZM446.184 620.833L357.225 531.874L354.396 534.702L443.356 623.662L446.184 620.833ZM357.225 712.622L446.184 623.662L443.356 620.833L354.396 709.793L357.225 712.622ZM265.436 623.662L354.396 712.622L357.225 709.793L268.265 620.833L265.436 623.662Z" fill="#D72529" mask="url(#path-1-inside-1_86_476)"/>
</svg>
