<svg width="279" height="78" viewBox="0 0 279 78" fill="none" xmlns="http://www.w3.org/2000/svg">
<path d="M77.8493 55.9561L63.7426 4.8792C63.5455 4.15393 62.8884 3.67041 62.1655 3.67041C61.4426 3.67041 60.7855 4.15393 60.5884 4.8792L46.4817 55.9561C46.2408 56.8352 46.7665 57.7583 47.6208 57.9781C47.7741 58.0221 47.9275 58.044 48.0589 58.044C48.7817 58.044 49.4389 57.5605 49.636 56.8352L54.3674 39.6484H69.8979L74.6293 56.8352C74.8702 57.7144 75.7902 58.2199 76.6445 57.9781C77.5426 57.7363 78.0464 56.8352 77.8055 55.9561H77.8493ZM55.2874 36.3517L62.1436 11.5166L68.9998 36.3517H55.2874Z" fill="white"/>
<path d="M182.313 54.7468H170.572V5.31827C170.572 4.3952 169.827 3.66992 168.929 3.66992C168.031 3.66992 167.286 4.41717 167.286 5.31827V56.3952C167.286 57.3183 168.031 58.0435 168.929 58.0435H182.335C183.255 58.0435 183.977 57.2963 183.977 56.3952C183.977 55.4941 183.233 54.7468 182.313 54.7468Z" fill="white"/>
<path d="M206.956 54.7468H195.215V5.31827C195.215 4.3952 194.47 3.66992 193.572 3.66992C192.674 3.66992 191.929 4.41717 191.929 5.31827V56.3952C191.929 57.3183 192.674 58.0435 193.572 58.0435H206.956C207.876 58.0435 208.598 57.2963 208.598 56.3952C208.598 55.4941 207.854 54.7468 206.956 54.7468Z" fill="white"/>
<path d="M149.675 17.4941C148.755 17.4941 148.032 18.2414 148.032 19.1425V56.3952C148.032 57.3183 148.777 58.0436 149.675 58.0436C150.573 58.0436 151.318 57.2963 151.318 56.3952V19.1425C151.318 18.2194 150.573 17.4722 149.675 17.4722V17.4941Z" fill="white"/>
<path d="M149.675 3.51611C148.755 3.51611 148.032 4.26337 148.032 5.16446V9.8238C148.032 10.7469 148.777 11.4722 149.675 11.4722C150.573 11.4722 151.318 10.7249 151.318 9.8238V5.16446C151.318 4.24139 150.573 3.51611 149.675 3.51611Z" fill="white"/>
<path d="M137.715 3.66992H114.43C113.51 3.66992 112.787 4.41717 112.787 5.31827C112.787 6.21937 113.532 6.96663 114.43 6.96663H124.616V56.3952C124.616 57.3183 125.361 58.0435 126.259 58.0435C127.157 58.0435 127.901 57.2963 127.901 56.3952V6.9886H137.693C138.613 6.9886 139.336 6.24135 139.336 5.34025C139.336 4.43915 138.591 3.66992 137.693 3.66992H137.715Z" fill="white"/>
<path d="M237.556 54.7468H221.04V32.7468H232.715C233.635 32.7468 234.358 31.9996 234.358 31.0985C234.358 30.1974 233.613 29.4501 232.715 29.4501H221.04V7.03254H237.556C238.476 7.03254 239.199 6.28529 239.199 5.38419C239.199 4.48309 238.454 3.73584 237.556 3.73584H219.397C218.477 3.73584 217.755 4.48309 217.755 5.38419V56.3952C217.755 57.3183 218.499 58.0435 219.397 58.0435H237.556C238.476 58.0435 239.199 57.2963 239.199 56.3952C239.199 55.4941 238.454 54.7468 237.556 54.7468Z" fill="white"/>
<path d="M96.1616 3.40625C89.9188 3.40625 87.7064 5.66999 87.7064 12.0656L87.6407 20.0216C87.6407 25.3183 90.2911 27.692 94.2778 31.3403L95.0444 32.0216C95.0444 32.0216 95.1759 32.1315 95.2416 32.1755C95.3073 32.2194 101.375 36.3513 101.375 41.7359L101.309 49.692C101.309 54.2414 100.543 55.0546 96.1616 55.0546C91.7806 55.0546 90.9483 54.0436 90.9483 49.3623V42.8568C90.9483 41.9337 90.2035 41.2084 89.3054 41.2084C88.4073 41.2084 87.6626 41.9557 87.6626 42.8568V49.3623C87.6626 55.8238 90.0502 58.3733 96.1835 58.3733C102.317 58.3733 104.639 56.1095 104.639 49.7139L104.704 41.7579C104.704 35.0106 98.1768 30.1755 97.2349 29.5161L96.5559 28.9008C92.7226 25.4282 90.9921 23.8458 90.9921 20.0436L91.0578 12.0876C91.0578 7.53812 91.8245 6.74691 96.2273 6.74691C100.63 6.74691 101.441 7.7579 101.441 12.4392V18.9227C101.441 19.8458 102.185 20.5711 103.083 20.5711C103.982 20.5711 104.726 19.8238 104.726 18.9227V12.4392C104.726 5.97768 102.339 3.42823 96.2054 3.42823H96.1616V3.40625Z" fill="white"/>
<path d="M252.013 3.9781C252.013 3.75832 252.189 3.67041 252.386 3.67041H256.789C257.008 3.67041 257.095 3.84623 257.095 4.02206C257.095 4.24184 256.986 4.41766 256.789 4.41766H252.846V7.84623H254.817C254.992 7.84623 255.124 8.02206 255.124 8.21986C255.124 8.37371 255.036 8.54953 254.817 8.54953H252.846V12.4396C252.846 12.6594 252.627 12.7473 252.43 12.7473C252.211 12.7473 252.013 12.6374 252.013 12.4396V3.95612V3.9781Z" fill="white"/>
<path d="M258.563 10.1759V6.30778C258.563 4.37371 259.702 3.64844 261.148 3.64844C262.593 3.64844 263.732 4.37371 263.732 6.30778V10.1539C263.732 12.088 262.593 12.8133 261.148 12.8133C259.702 12.8133 258.563 12.088 258.563 10.1539V10.1759ZM262.9 6.30778C262.9 5.01107 262.243 4.41767 261.148 4.41767C260.052 4.41767 259.395 5.01107 259.395 6.30778V10.1539C259.395 11.4506 260.052 12.066 261.148 12.066C262.243 12.066 262.9 11.4726 262.9 10.1539V6.30778Z" fill="white"/>
<path d="M266.164 10.1759V6.30778C266.164 4.37371 267.303 3.64844 268.749 3.64844C270.194 3.64844 271.333 4.37371 271.333 6.30778V10.1539C271.333 12.088 270.194 12.8133 268.749 12.8133C267.303 12.8133 266.164 12.088 266.164 10.1539V10.1759ZM270.501 6.30778C270.501 5.01107 269.844 4.41767 268.749 4.41767C267.653 4.41767 266.996 5.01107 266.996 6.30778V10.1539C266.996 11.4506 267.653 12.066 268.749 12.066C269.844 12.066 270.501 11.4726 270.501 10.1539V6.30778Z" fill="white"/>
<path d="M276.415 3.67041C277.861 3.67041 279 4.39569 279 6.32975V10.11C279 12.044 277.861 12.7693 276.415 12.7693H274.225C274.006 12.7693 273.852 12.6155 273.852 12.4616V3.9781C273.852 3.82426 274.006 3.67041 274.225 3.67041H276.415ZM274.663 4.43964V12.0221H276.415C277.511 12.0221 278.19 11.4067 278.19 10.11V6.30777C278.19 5.01107 277.511 4.41766 276.415 4.41766H274.663V4.43964Z" fill="white"/>
<path d="M258.212 35.011C258.147 35.2088 257.928 35.3186 257.709 35.3186C257.49 35.3186 257.271 35.2307 257.227 35.011L256.044 30.6154L254.861 35.011C254.817 35.2088 254.598 35.3186 254.379 35.3186C254.16 35.3186 253.941 35.2307 253.875 35.011L251.444 26.5714V26.4615C251.444 26.2637 251.685 26.1318 251.904 26.1318C252.057 26.1318 252.189 26.1978 252.232 26.3516L254.379 34L255.606 29.3626C255.65 29.1428 255.847 29.0769 256.044 29.0769C256.241 29.0769 256.394 29.1428 256.46 29.3626L257.687 34L259.833 26.3516C259.877 26.2197 260.009 26.1318 260.162 26.1318C260.381 26.1318 260.622 26.2637 260.622 26.4615V26.5714L258.191 35.011H258.212Z" fill="white"/>
<path d="M262.615 26.4176C262.615 26.1978 262.812 26.1099 263.031 26.1099C263.229 26.1099 263.448 26.1978 263.448 26.4176V34.9011C263.448 35.1209 263.229 35.2307 263.031 35.2307C262.812 35.2307 262.615 35.1209 262.615 34.9011V26.4176Z" fill="white"/>
<path d="M270.326 34.7472L266.865 28.022V34.9011C266.865 35.1209 266.646 35.2307 266.449 35.2307C266.23 35.2307 266.032 35.1209 266.032 34.9011V26.4395C266.032 26.2198 266.23 26.1318 266.449 26.1318C266.755 26.1318 266.931 26.3956 267.084 26.7033L270.435 33.3187V26.4176C270.435 26.1978 270.632 26.1099 270.851 26.1099C271.049 26.1099 271.268 26.1978 271.268 26.4176V34.9011C271.268 35.1209 271.049 35.2307 270.851 35.2307C270.632 35.2307 270.435 35.011 270.304 34.7472H270.326Z" fill="white"/>
<path d="M274.729 30.3077H276.678C276.875 30.3077 276.985 30.4835 276.985 30.6813C276.985 30.8351 276.897 31.011 276.678 31.011H274.729V34.4615H278.693C278.891 34.4615 279 34.6373 279 34.8571C279 35.0329 278.912 35.2307 278.693 35.2307H274.269C274.093 35.2307 273.896 35.1208 273.896 34.9011V26.4395C273.896 26.2197 274.071 26.1318 274.269 26.1318H278.693C278.912 26.1318 279 26.3077 279 26.4835C279 26.7033 278.891 26.8791 278.693 26.8791H274.729V30.3077Z" fill="white"/>
<path d="M258.826 57.7141V57.6262L261.41 49.1646C261.476 48.9668 261.695 48.8789 261.892 48.8789C262.111 48.8789 262.33 48.9888 262.396 49.1646L264.981 57.6262V57.6921C264.981 57.8899 264.696 58.0437 264.477 58.0437C264.346 58.0437 264.214 57.9778 264.17 57.824L263.601 55.9119H260.162L259.592 57.824C259.549 57.9778 259.417 58.0437 259.264 58.0437C259.067 58.0437 258.804 57.8899 258.804 57.6921H258.826V57.7141ZM263.426 55.2086L261.914 50.1976L260.403 55.2086H263.426Z" fill="white"/>
<path d="M266.952 49.2525C266.952 49.0987 267.084 48.9668 267.259 48.9448H269.45C270.895 48.9448 272.122 49.5382 272.122 51.3844C272.122 52.9228 271.268 53.6042 270.194 53.78L272.1 57.4503C272.1 57.4503 272.144 57.5602 272.144 57.6042C272.144 57.8239 271.903 58.0217 271.684 58.0217C271.487 58.0217 271.355 57.78 271.246 57.5822L269.34 53.8459H267.763V57.6701C267.763 57.8899 267.544 57.9998 267.347 57.9998C267.128 57.9998 266.93 57.8899 266.93 57.6701V49.1866V49.2525H266.952ZM267.785 49.7141V53.2086H269.471C270.567 53.2086 271.333 52.7031 271.333 51.4503C271.333 50.1976 270.567 49.7141 269.471 49.7141H267.785Z" fill="white"/>
<path d="M278.693 48.9448C278.912 48.9448 279 49.1207 279 49.3185C279 49.5163 278.89 49.7141 278.693 49.7141H276.612V57.7141C276.612 57.9338 276.393 58.0437 276.196 58.0437C275.977 58.0437 275.78 57.9338 275.78 57.7141V49.7141H273.699C273.502 49.7141 273.392 49.5382 273.392 49.3185C273.392 49.1426 273.502 48.9229 273.699 48.9229H278.693V48.9448Z" fill="white"/>
<path d="M18.3562 61.67C18.1152 61.67 17.8962 61.5821 17.7428 61.3843C17.4362 61.0326 17.4581 60.5052 17.7866 60.1755L40.3704 39.5601C40.7208 39.2524 41.2466 39.2744 41.5751 39.626C41.8818 39.9777 41.8599 40.5052 41.5313 40.8348L18.9476 61.4502C18.7942 61.6041 18.5752 61.67 18.3781 61.67H18.3562Z" fill="white"/>
<path d="M22.1895 29.4506C21.9485 29.4506 21.7295 29.3627 21.5761 29.1649C21.2695 28.8132 21.2914 28.2857 21.6199 27.9561L35.2447 15.5165C35.5951 15.2088 36.1208 15.2308 36.4494 15.5605C36.7561 15.9121 36.7342 16.4396 36.3837 16.7692L22.7809 29.2088C22.6276 29.3627 22.4085 29.4286 22.2114 29.4286H22.1895V29.4506Z" fill="white"/>
<path d="M21.3352 51.5601C21.3352 51.5601 21.16 51.5601 21.0723 51.5161C20.7876 51.4282 20.5685 51.1865 20.5028 50.9008L19.2323 44.9447C19.1228 44.4832 19.4295 44.0216 19.8895 43.9337C20.3495 43.8238 20.8095 44.1315 20.8971 44.5931L21.8609 49.0986L39.0999 33.5821C39.4504 33.2744 39.9761 33.2964 40.3046 33.648C40.6113 33.9997 40.5894 34.5491 40.2389 34.8568L21.9047 51.3403C21.7514 51.4722 21.5542 51.5601 21.3352 51.5601Z" fill="white"/>
<path d="M19.5609 17.2304C19.5609 17.2304 19.4076 17.2304 19.32 17.2304L7.88572 13.8458C7.42572 13.7139 7.18477 13.2304 7.3162 12.7908C7.44763 12.3293 7.92953 12.0875 8.36762 12.2194L19.8019 15.604C20.2619 15.7359 20.5028 16.2194 20.3714 16.659C20.2619 17.0326 19.9114 17.2743 19.5609 17.2743V17.2304Z" fill="white"/>
<path d="M20.0647 45.6259C20.0647 45.6259 19.8895 45.6259 19.8018 45.5819C19.4952 45.494 19.298 45.2523 19.2323 44.9446L17.94 38.8127C17.8304 38.3512 18.1371 37.8896 18.5971 37.8017C19.0571 37.7138 19.5171 37.9995 19.6047 38.4611L20.5904 43.1204L24.0952 39.8237L28.3666 35.7798C28.6952 35.4721 29.2428 35.4721 29.5713 35.8237C29.878 36.1534 29.878 36.7028 29.5275 37.0325L20.6123 45.4281C20.459 45.5819 20.2399 45.6699 20.0209 45.6699V45.6259H20.0647Z" fill="white"/>
<path d="M10.6676 25.7361C10.2733 25.7361 9.92284 25.4504 9.83523 25.0548L7.27238 13.1427C7.16285 12.6812 7.46952 12.2196 7.92952 12.1317C8.38952 12.0218 8.84952 12.3295 8.93713 12.791L11.5 24.7031C11.6095 25.1647 11.3028 25.6262 10.8428 25.7141H10.6676V25.7361Z" fill="white"/>
<path d="M16.2095 27.5161C15.9685 27.5161 15.7495 27.4282 15.5743 27.2304C15.2676 26.8788 15.2895 26.3293 15.64 26.0216L33.9523 9.58208C34.3028 9.27439 34.8504 9.29637 35.157 9.64802C35.4637 9.99967 35.4418 10.5491 35.0913 10.8568L16.779 27.2964C16.6257 27.4502 16.4285 27.5161 16.2095 27.5161Z" fill="white"/>
<path d="M16.2095 27.5163C16.2095 27.5163 16.0343 27.5163 15.9466 27.4724L10.4047 25.7141C10.12 25.6262 9.90094 25.3844 9.83523 25.0768L7.27238 13.1647C7.16285 12.7031 7.46952 12.2416 7.92952 12.1537C8.38952 12.0438 8.84952 12.3515 8.93713 12.813L11.3686 24.2196L15.0485 25.3844L14.0847 20.9229C13.9752 20.4614 14.2819 19.9998 14.72 19.9119C15.18 19.802 15.64 20.1097 15.7276 20.5493L17.02 26.4614C17.0857 26.7691 17.02 27.0768 16.7571 27.2746C16.6038 27.4504 16.3847 27.5163 16.1657 27.5163H16.2095Z" fill="white"/>
<path d="M18.3562 61.6702C17.9619 61.6702 17.6114 61.3844 17.5238 60.9888L12.42 37.1647C12.3105 36.7031 12.6171 36.2416 13.0771 36.1537C13.5371 36.0438 13.9971 36.3515 14.0847 36.813L19.1885 60.6372C19.2981 61.0987 18.9914 61.5603 18.5314 61.6482H18.3562V61.6702Z" fill="white"/>
<path d="M16.2095 27.5163C16.2095 27.5163 16.0124 27.5163 15.9028 27.4723C15.6181 27.3625 15.399 27.1207 15.3552 26.813C15.3114 26.5053 15.4209 26.1976 15.6619 25.9998C15.9028 25.802 16.2314 25.7581 16.4943 25.868C16.7571 25.9778 16.9762 26.2416 17.02 26.5273C17.0638 26.835 16.9762 27.1207 16.7352 27.3185C16.5819 27.4504 16.3847 27.5163 16.1876 27.5163H16.2095Z" fill="white"/>
<path d="M22.1895 29.4504C22.1895 29.4504 22.0142 29.4505 21.9266 29.4065L15.9685 27.4944C15.5085 27.3406 15.2676 26.879 15.4209 26.4175C15.5743 25.9559 16.0343 25.7142 16.4942 25.868L22.4523 27.7801C22.9123 27.934 23.1533 28.3955 22.9999 28.857C22.8904 29.2087 22.5399 29.4504 22.1895 29.4504Z" fill="white"/>
<path d="M21.3352 51.5603C20.9409 51.5603 20.5904 51.2746 20.5028 50.901L19.2323 44.9449V44.7691C19.2323 44.3735 19.5171 44.0219 19.9114 43.934C20.3714 43.8241 20.8314 44.1318 20.919 44.5933L22.1895 50.5493V50.7252C22.1895 51.1208 21.9047 51.4724 21.5104 51.5603H21.3352Z" fill="white"/>
<path d="M12.3981 59.8679C12.0038 59.8679 11.6533 59.5822 11.5657 59.2086L5.16953 29.3185C5.06001 28.8569 5.36668 28.3954 5.82667 28.3075C6.28667 28.1976 6.74667 28.5053 6.83429 28.9668L13.2305 58.8569C13.34 59.3185 13.0333 59.78 12.5733 59.8679H12.3981Z" fill="white"/>
<path d="M24.6428 41.2303C24.6428 41.2303 24.4894 41.2303 24.4018 41.2303L7.0095 36.0435C6.5495 35.9117 6.30855 35.4281 6.43998 34.9886C6.57141 34.527 7.05331 34.2853 7.4914 34.4171L24.8837 39.604C25.3437 39.7358 25.5847 40.2193 25.4532 40.6589C25.3437 41.0325 25.0152 41.2743 24.6428 41.2743V41.2303Z" fill="white"/>
<path d="M14.9171 21.6044C14.6981 21.6044 14.4571 21.5165 14.3038 21.3407C13.9971 21.011 13.9971 20.4616 14.3476 20.1319L23.2628 11.7363C23.5914 11.4286 24.139 11.4286 24.4676 11.7802C24.7742 12.1099 24.7742 12.6594 24.4237 12.989L15.5085 21.3846C15.3552 21.5385 15.1362 21.6044 14.9171 21.6044Z" fill="white"/>
<path d="M6.0019 29.9778C5.60762 29.9778 5.25714 29.6921 5.16952 29.2965L0.0219203 5.2965C-0.0876031 4.83496 0.219063 4.37343 0.679061 4.28551C1.13906 4.17562 1.59906 4.48332 1.68668 4.94485L6.83428 28.9668C6.9438 29.4284 6.63714 29.8899 6.17714 29.9778H6.0019Z" fill="white"/>
<path d="M18.3561 61.6704C18.3561 61.6704 18.2028 61.6704 18.1152 61.6704L12.1571 59.8902C11.6971 59.7583 11.4562 59.2748 11.5876 58.8353C11.719 58.3737 12.2009 58.132 12.639 58.2638L18.5971 60.044C19.0571 60.1759 19.298 60.6594 19.1666 61.099C19.0571 61.4726 18.7285 61.7144 18.3561 61.7144V61.6704Z" fill="white"/>
<path d="M40.9399 41.033C40.5456 41.033 40.1951 40.7473 40.1075 40.3517L38.837 34.3956C38.7275 33.9341 39.0342 33.4725 39.4942 33.3846C39.9542 33.2747 40.4142 33.5824 40.5018 34.044L41.7722 40C41.8818 40.4616 41.5751 40.9231 41.1151 41.011H40.9399V41.033Z" fill="white"/>
<path d="M39.6694 35.0768C39.6694 35.0768 39.4942 35.0768 39.4065 35.0329L21.9047 29.4065C21.4447 29.2527 21.2037 28.7911 21.3571 28.3296C21.5104 27.8681 21.9704 27.6263 22.4304 27.7801L39.9322 33.4065C40.3922 33.5604 40.6332 34.0219 40.4799 34.4834C40.3703 34.8571 40.0199 35.0768 39.6694 35.0768Z" fill="white"/>
<path d="M14.9171 21.6042C14.5228 21.6042 14.1723 21.3185 14.0847 20.9229L12.7923 14.813C12.6828 14.3514 12.9895 13.8899 13.4495 13.802C13.9095 13.7141 14.3695 13.9998 14.4571 14.4613L15.7495 20.5712C15.859 21.0328 15.5523 21.4943 15.0923 21.5822H14.9171V21.6042Z" fill="white"/>
<path d="M28.9799 37.2306C28.9799 37.2306 28.8047 37.2306 28.7171 37.1866L5.73904 29.9339C5.27905 29.78 5.03809 29.3185 5.19143 28.8569C5.34476 28.3954 5.80476 28.1536 6.26476 28.3075L29.2428 35.5602C29.7028 35.7141 29.9437 36.1756 29.7904 36.6372C29.6809 36.9888 29.3304 37.2306 28.9799 37.2306Z" fill="white"/>
<path d="M20.0647 45.6264C19.8456 45.6264 19.6047 45.5385 19.4514 45.3627C19.1447 45.033 19.1447 44.4835 19.4952 44.1539L28.4104 35.7583C28.7389 35.4506 29.2866 35.4506 29.6151 35.8022C29.9218 36.1319 29.9218 36.6813 29.5713 37.011L20.6561 45.4066C20.5028 45.5605 20.2837 45.6264 20.0866 45.6264H20.0647Z" fill="white"/>
<path d="M35.7923 17.0109C35.398 17.0109 35.0475 16.7252 34.9599 16.3296L33.6894 10.3735C33.5799 9.91198 33.8865 9.45044 34.3465 9.36253C34.8065 9.27462 35.2665 9.56033 35.3542 10.0219L36.6246 15.9779C36.7342 16.4395 36.4275 16.901 35.9675 16.9889H35.7923V17.0109Z" fill="white"/>
<path d="M34.5218 11.0548C34.5218 11.0548 34.3466 11.0548 34.2589 11.0108L5.23523 1.67019C4.77523 1.51634 4.53428 1.0548 4.68761 0.593265C4.84094 0.131727 5.30094 -0.110031 5.76094 0.0438148L34.7847 9.38447C35.2447 9.53832 35.4856 9.99986 35.3323 10.4614C35.2227 10.813 34.8942 11.0548 34.5218 11.0548Z" fill="white"/>
<path d="M0.854296 5.95604C0.613345 5.95604 0.394298 5.86813 0.21906 5.67033C-0.0876051 5.31868 -0.0657005 4.79121 0.284774 4.46154L4.95047 0.219779C5.30095 -0.0879131 5.82666 -0.0659351 6.15523 0.285713C6.4838 0.637362 6.43999 1.16483 6.08952 1.4945L1.42382 5.73626C1.27049 5.89011 1.07334 5.95604 0.854296 5.95604Z" fill="white"/>
<path d="M23.8323 13.2086C23.8323 13.2086 23.6571 13.2086 23.5694 13.1646L0.59143 5.91189C0.131432 5.75804 -0.10952 5.2965 0.0438131 4.83496C0.197146 4.37343 0.657144 4.13167 1.11714 4.28551L24.0952 11.5383C24.5552 11.6921 24.7961 12.1536 24.6428 12.6152C24.5333 12.9668 24.1828 13.2086 23.8323 13.2086Z" fill="white"/>
<path d="M77.6521 67.5606C77.6521 67.3848 77.8054 67.231 78.0026 67.209H80.5654C82.2521 67.209 83.6978 67.8903 83.6978 70.0661C83.6978 71.8683 82.6902 72.6595 81.4416 72.8793L83.6759 77.187C83.6759 77.187 83.7416 77.3189 83.7416 77.3628C83.7416 77.6046 83.4568 77.8463 83.194 77.8463C82.953 77.8463 82.7997 77.5606 82.6902 77.3408L80.4559 72.9892H78.6159V77.4507C78.6159 77.6925 78.3749 77.8244 78.134 77.8244C77.893 77.8244 77.6521 77.6925 77.6521 77.4507V67.5606ZM78.6159 68.0881V72.154H80.5873C81.8797 72.154 82.7559 71.5606 82.7559 70.1101C82.7559 68.6595 81.8797 68.0881 80.5873 68.0881H78.6159Z" fill="white"/>
<path d="M88.2978 72.0881H90.5758C90.8168 72.0881 90.9263 72.2859 90.9263 72.5277C90.9263 72.7035 90.8168 72.9233 90.5758 72.9233H88.2978V76.9452H92.9416C93.1825 76.9452 93.292 77.165 93.292 77.4068C93.292 77.6046 93.1825 77.8463 92.9416 77.8463H87.772C87.553 77.8463 87.334 77.7145 87.334 77.4727V67.5826C87.334 67.3408 87.553 67.231 87.772 67.231H92.9416C93.2044 67.231 93.292 67.4507 93.292 67.6485C93.292 67.8903 93.1606 68.1101 92.9416 68.1101H88.2978V72.1101V72.0881Z" fill="white"/>
<path d="M95.9206 67.7145V67.6046C95.9206 67.3628 96.2273 67.187 96.4682 67.187C96.6435 67.187 96.7968 67.2529 96.8406 67.4288L99.513 76.3519L102.185 67.4288C102.251 67.2529 102.383 67.187 102.536 67.187C102.799 67.187 103.127 67.3628 103.127 67.6046V67.6925L100.104 77.5387C100.039 77.7804 99.7977 77.8903 99.513 77.8903C99.272 77.8903 99.0311 77.7804 98.9435 77.5387L95.8987 67.6925L95.9206 67.7145Z" fill="white"/>
<path d="M106.435 74.8134V70.3079C106.435 68.0441 107.749 67.209 109.458 67.209C111.166 67.209 112.481 68.0441 112.481 70.3079V74.8134C112.481 77.0771 111.166 77.9123 109.458 77.9123C107.749 77.9123 106.435 77.0771 106.435 74.8134ZM111.495 70.3079C111.495 68.7914 110.728 68.1101 109.436 68.1101C108.143 68.1101 107.377 68.8134 107.377 70.3079V74.8134C107.377 76.3299 108.143 77.0332 109.436 77.0332C110.728 77.0332 111.495 76.3299 111.495 74.8134V70.3079Z" fill="white"/>
<path d="M116.993 77.8244C116.774 77.8244 116.555 77.6925 116.555 77.4507V67.5606C116.555 67.3189 116.796 67.209 117.037 67.209C117.278 67.209 117.519 67.3189 117.519 67.5606V76.9452H121.637C121.856 76.9452 121.943 77.165 121.943 77.3848C121.943 77.6266 121.834 77.8463 121.637 77.8463H116.993V77.8244Z" fill="white"/>
<path d="M130.114 67.5606C130.114 67.3189 130.355 67.209 130.596 67.209C130.837 67.209 131.078 67.3189 131.078 67.5606V74.8134C131.078 77.0771 129.72 77.9123 128.033 77.9123C126.346 77.9123 124.988 77.0771 124.988 74.8134V67.5606C124.988 67.3189 125.229 67.209 125.47 67.209C125.711 67.209 125.952 67.3189 125.952 67.5606V74.8134C125.952 76.3299 126.741 77.0332 128.033 77.0332C129.325 77.0332 130.114 76.3079 130.114 74.8134V67.5606Z" fill="white"/>
<path d="M140.54 67.209C140.781 67.209 140.891 67.4288 140.891 67.6486C140.891 67.8683 140.781 68.1101 140.54 68.1101H138.109V77.4508C138.109 77.6925 137.868 77.8244 137.627 77.8244C137.386 77.8244 137.145 77.6925 137.145 77.4508V68.1101H134.714C134.473 68.1101 134.363 67.8903 134.363 67.6486C134.363 67.4288 134.473 67.187 134.714 67.187H140.54V67.209Z" fill="white"/>
<path d="M144.264 67.5606C144.264 67.3189 144.505 67.209 144.746 67.209C144.987 67.209 145.228 67.3189 145.228 67.5606V77.4507C145.228 77.6925 144.987 77.8244 144.746 77.8244C144.505 77.8244 144.264 77.6925 144.264 77.4507V67.5606Z" fill="white"/>
<path d="M149.324 74.8134V70.3079C149.324 68.0441 150.639 67.209 152.347 67.209C154.056 67.209 155.37 68.0441 155.37 70.3079V74.8134C155.37 77.0771 154.056 77.9123 152.347 77.9123C150.639 77.9123 149.324 77.0771 149.324 74.8134ZM154.384 70.3079C154.384 68.7914 153.618 68.1101 152.325 68.1101C151.033 68.1101 150.266 68.8134 150.266 70.3079V74.8134C150.266 76.3299 151.033 77.0332 152.325 77.0332C153.618 77.0332 154.384 76.3299 154.384 74.8134V70.3079Z" fill="white"/>
<path d="M164.438 77.2749L160.408 69.4068V77.4507C160.408 77.6925 160.167 77.8244 159.926 77.8244C159.685 77.8244 159.444 77.6925 159.444 77.4507V67.5606C159.444 67.2969 159.685 67.209 159.926 67.209C160.277 67.209 160.496 67.5167 160.693 67.8683L164.614 75.6046V67.5606C164.614 67.3189 164.855 67.209 165.096 67.209C165.337 67.209 165.578 67.3189 165.578 67.5606V77.4507C165.578 77.6925 165.337 77.8244 165.096 77.8244C164.811 77.8244 164.592 77.5606 164.46 77.2749H164.438Z" fill="white"/>
<path d="M174.471 67.7804C174.471 67.3628 174.931 67.187 175.413 67.187C175.895 67.187 176.355 67.3628 176.355 67.7804V77.231C176.355 77.6266 175.873 77.8244 175.413 77.8244C174.953 77.8244 174.471 77.6266 174.471 77.231V67.7804Z" fill="white"/>
<path d="M185.117 77.231L182.006 71.3848V77.231C182.006 77.6266 181.524 77.8244 181.064 77.8244C180.604 77.8244 180.122 77.6266 180.122 77.231V67.8024C180.122 67.3848 180.582 67.209 181.064 67.209C181.743 67.209 182.028 67.3628 182.466 68.22L185.27 73.6485V67.8024C185.27 67.3848 185.73 67.209 186.212 67.209C186.694 67.209 187.154 67.3848 187.154 67.8024V77.2529C187.154 77.6485 186.672 77.8463 186.212 77.8463C185.752 77.8463 185.357 77.6925 185.117 77.2529V77.231Z" fill="white"/>
<path d="M201.874 67.209C202.29 67.209 202.465 67.6485 202.465 68.0441C202.465 68.5057 202.246 68.9013 201.874 68.9013H199.749V77.231C199.749 77.6266 199.267 77.8244 198.807 77.8244C198.347 77.8244 197.865 77.6266 197.865 77.231V68.9013H195.74C195.368 68.9013 195.149 68.5057 195.149 68.0441C195.149 67.6266 195.324 67.209 195.74 67.209H201.874Z" fill="white"/>
<path d="M210.657 73.0551H207.394V77.231C207.394 77.6266 206.912 77.8244 206.452 77.8244C205.992 77.8244 205.51 77.6266 205.51 77.231V67.7804C205.51 67.3628 205.97 67.187 206.452 67.187C206.934 67.187 207.394 67.3628 207.394 67.7804V71.5826H210.657V67.7804C210.657 67.3628 211.117 67.187 211.599 67.187C212.081 67.187 212.541 67.3628 212.541 67.7804V77.231C212.541 77.6266 212.059 77.8244 211.599 77.8244C211.139 77.8244 210.657 77.6266 210.657 77.231V73.0551Z" fill="white"/>
<path d="M218.193 71.7804H220.383C220.755 71.7804 220.974 72.1321 220.974 72.5496C220.974 72.8793 220.799 73.2749 220.383 73.2749H218.193V76.198H222.289C222.661 76.198 222.88 76.5936 222.88 77.0332C222.88 77.4288 222.705 77.8463 222.289 77.8463H217.119C216.703 77.8463 216.287 77.6485 216.287 77.2529V67.8244C216.287 67.4288 216.703 67.231 217.119 67.231H222.289C222.705 67.231 222.88 67.6485 222.88 68.0441C222.88 68.5057 222.661 68.8793 222.289 68.8793H218.193V71.7804Z" fill="white"/>
<path d="M230.941 67.7804C230.941 67.4727 231.182 67.187 231.554 67.187H234.424C236.33 67.187 237.863 67.9123 237.863 70.22C237.863 71.8903 237.053 72.7914 235.957 73.1211L237.863 76.6376C237.863 76.6376 237.929 76.8134 237.929 76.8793C237.929 77.3628 237.315 77.8683 236.746 77.8683C236.483 77.8683 236.242 77.7145 236.089 77.4068L234.03 73.4068H232.803V77.209C232.803 77.6046 232.343 77.8024 231.861 77.8024C231.379 77.8024 230.919 77.6046 230.919 77.209V67.7804H230.941ZM232.825 68.8573V71.9562H234.424C235.366 71.9562 235.979 71.5606 235.979 70.4178C235.979 69.2749 235.366 68.8573 234.424 68.8573H232.825Z" fill="white"/>
<path d="M241.105 74.5936V70.5277C241.105 68.0881 242.594 67.187 244.5 67.187C246.406 67.187 247.895 68.0881 247.895 70.5277V74.5936C247.895 77.0332 246.406 77.9343 244.5 77.9343C242.594 77.9343 241.105 77.0112 241.105 74.5936ZM246.012 70.5277C246.012 69.3848 245.42 68.8573 244.5 68.8573C243.58 68.8573 242.989 69.3848 242.989 70.5277V74.5936C242.989 75.7365 243.536 76.2639 244.5 76.2639C245.464 76.2639 246.012 75.7365 246.012 74.5936V70.5277Z" fill="white"/>
<path d="M254.817 68.8573C253.853 68.8573 253.306 69.3848 253.306 70.5277V74.5936C253.306 75.7365 253.853 76.2639 254.861 76.2639C256.175 76.2639 256.285 75.3189 256.35 74.7035C256.35 74.242 256.789 74.1101 257.27 74.1101C257.928 74.1101 258.234 74.2859 258.234 75.0332C258.234 76.7914 256.81 77.9123 254.773 77.9123C252.955 77.9123 251.444 77.0112 251.444 74.5716V70.5057C251.444 68.0661 252.955 67.165 254.795 67.165C256.81 67.165 258.234 68.242 258.234 69.9123C258.234 70.6815 257.928 70.8354 257.292 70.8354C256.767 70.8354 256.372 70.6815 256.35 70.242C256.329 69.8024 256.219 68.8134 254.839 68.8134V68.8573H254.817Z" fill="white"/>
<path d="M261.52 67.7804C261.52 67.3628 261.98 67.187 262.462 67.187C262.944 67.187 263.404 67.3628 263.404 67.7804V71.7584L266.536 67.4727C266.69 67.2749 266.843 67.187 267.062 67.187C267.544 67.187 268.135 67.6705 268.135 68.154C268.135 68.2639 268.135 68.3958 268.026 68.5057L265.441 71.7584L268.595 76.5936C268.595 76.5936 268.705 76.8134 268.705 76.9233C268.705 77.3848 268.113 77.8683 267.566 77.8683C267.325 77.8683 267.084 77.7584 266.909 77.5167L264.17 73.3848L263.382 74.3738V77.231C263.382 77.6266 262.9 77.8244 262.44 77.8244C261.98 77.8244 261.498 77.6266 261.498 77.231V67.7804H261.52Z" fill="white"/>
<path d="M275.933 74.9892C275.933 72.8134 271.29 73.4727 271.29 70.0442C271.29 67.8903 273.13 67.1431 274.794 67.1431C275.649 67.1431 277.532 67.3409 277.532 68.3079C277.532 68.6376 277.291 69.3189 276.766 69.3189C276.306 69.3189 275.977 68.7694 274.772 68.7694C273.721 68.7694 273.13 69.187 273.13 69.8903C273.13 71.6925 277.773 71.0771 277.773 74.8354C277.773 76.9233 276.328 78.0002 274.334 78.0002C272.341 78.0002 270.983 77.0332 270.983 76.198C270.983 75.7804 271.355 75.187 271.815 75.187C272.407 75.187 272.801 76.3079 274.269 76.3079C275.145 76.3079 275.889 75.9123 275.889 75.0552L275.933 74.9892Z" fill="white"/>
</svg>
