<svg width="61" height="14" viewBox="0 0 61 14" fill="none" xmlns="http://www.w3.org/2000/svg">
<path d="M6.96969 6.86688H12.9916V7.00585C12.9746 10.8277 10.7874 13.1903 7.19614 13.1903C3.36132 13.1903 0.827148 10.4632 0.827148 6.88396C0.827148 3.30475 3.41252 0.577621 7.00497 0.577621C9.41738 0.577621 11.3257 1.79309 12.1939 3.70459L11.3439 4.10443C10.6498 2.47089 9.05325 1.44679 7.00611 1.44679C3.91777 1.44679 1.78301 3.79231 1.78301 6.88396C1.78301 9.97562 3.86542 12.3211 7.19728 12.3211C10.0603 12.3211 11.7615 10.5668 12.0562 7.71782H6.97197V6.86688H6.96969Z" fill="#20224A"/>
<path d="M24.0642 13.016H22.9194L18.9458 7.7349H16.3775V13.016H15.458V0.7519H19.1017C21.9124 0.7519 22.9536 2.17698 22.9536 4.15682C22.9536 6.13667 21.86 7.35328 19.9688 7.59592L24.0642 13.016ZM16.3763 1.61993V6.86573H18.8752C20.8529 6.86573 21.9988 6.08427 21.9988 4.15569C21.9988 2.34899 21.027 1.61879 18.9446 1.61879H16.3763V1.61993Z" fill="#20224A"/>
<path d="M25.2607 6.88396C25.2607 3.30588 27.8814 0.577614 31.5421 0.577614C35.2028 0.577614 37.8235 3.30474 37.8235 6.88396C37.8235 10.4632 35.2028 13.1903 31.5421 13.1903C27.8814 13.1903 25.2607 10.4632 25.2607 6.88396ZM36.887 6.88396C36.887 3.7923 34.701 1.44679 31.5421 1.44679C28.3832 1.44679 26.2143 3.7923 26.2143 6.88396C26.2143 9.97561 28.4003 12.3211 31.5421 12.3211C34.6839 12.3211 36.887 9.97561 36.887 6.88396Z" fill="#20224A"/>
<path d="M40.376 8.10056V0.7519H41.2954V8.06525C41.2954 10.8277 42.3366 12.3211 44.9744 12.3211C47.6121 12.3211 48.6533 10.8277 48.6533 8.06525V0.7519H49.5727V8.10056C49.5727 11.3323 48.1674 13.1903 44.9744 13.1903C41.7813 13.1903 40.376 11.3312 40.376 8.10056Z" fill="#20224A"/>
<path d="M52.627 13.016V0.7519H56.4447C59.2736 0.7519 60.3148 2.19406 60.3148 4.26049C60.3148 6.70966 58.823 7.96045 56.3582 7.96045H53.5475V13.016H52.6281H52.627ZM53.5475 7.10951H56.2376C58.2677 7.10951 59.3612 6.27564 59.3612 4.26049C59.3612 2.41962 58.4588 1.61993 56.307 1.61993H53.5475V7.10951Z" fill="#20224A"/>
</svg>
