<svg width="67" height="24" viewBox="0 0 67 24" fill="none" xmlns="http://www.w3.org/2000/svg">
<path d="M17.508 17.2626C17.508 20.5958 15.7795 23.4163 9.79285 23.4163H0.379883V0.789322H9.60054C14.6916 0.789322 16.9322 3.03345 16.9322 6.4623C16.9322 9.02653 15.6839 10.8856 13.251 11.7502C16.0367 12.4554 17.5092 14.1857 17.5092 17.2626H17.508ZM5.98192 5.53161V9.89114H8.41481C10.2719 9.89114 11.2323 9.15411 11.2323 7.71195C11.2323 6.26978 10.5279 5.53275 8.44667 5.53275H5.98078L5.98192 5.53161ZM8.86315 18.6398C11.0082 18.6398 11.7444 17.8071 11.7444 16.4606C11.7444 14.8897 10.6235 14.3452 8.86315 14.3452H5.98192V18.6398H8.86315Z" fill="#20224A"/>
<path d="M37.5158 17.2626C37.5158 20.5957 35.7873 23.4163 29.8007 23.4163H20.3877V0.789314H29.6083C34.6994 0.789314 36.94 3.03344 36.94 6.46229C36.94 9.02652 35.6917 10.8856 33.2588 11.7502C36.0445 12.4554 37.517 14.1857 37.517 17.2626H37.5158ZM25.9897 5.5316V9.89114H28.4226C30.2797 9.89114 31.2401 9.15411 31.2401 7.71194C31.2401 6.26977 30.5358 5.53274 28.4545 5.53274H25.9886L25.9897 5.5316ZM28.871 18.6398C31.016 18.6398 31.7522 17.8071 31.7522 16.4606C31.7522 14.8897 30.6313 14.3452 28.871 14.3452H25.9897V18.6398H28.871Z" fill="#20224A"/>
<path d="M59.3807 23.4163H52.7216L47.6635 15.1472H45.9987V23.4163H40.3955V0.789314H49.392C54.5149 0.789314 56.8511 3.60985 56.8511 7.80763C56.8511 10.8845 55.4742 12.8393 53.2018 13.705L59.3807 23.4163ZM45.9987 5.78905V10.7569H48.2404C50.1294 10.7569 51.0579 10.0199 51.0579 8.28835C51.0579 6.55684 50.3217 5.78905 48.3041 5.78905H45.9987Z" fill="#20224A"/>
<path d="M60.5 20.4989C60.5 18.6717 61.8769 17.3583 63.734 17.3583C65.5911 17.3583 66.9999 18.6729 66.9999 20.4989C66.9999 22.325 65.623 23.7045 63.734 23.7045C61.845 23.7045 60.5 22.358 60.5 20.4989Z" fill="#20224A"/>
</svg>
