<svg width="67" height="24" viewBox="0 0 67 24" fill="none" xmlns="http://www.w3.org/2000/svg">
<path d="M17.5088 17.0783C17.5088 20.3833 15.7802 23.1801 9.79353 23.1801H0.380478V0.743847H9.60122C14.6924 0.743847 16.933 2.96906 16.933 6.369C16.933 8.91162 15.6846 10.755 13.2517 11.6124C16.0374 12.3116 17.5099 14.0273 17.5099 17.0783H17.5088ZM5.98257 5.44616V9.76894H8.41548C10.2726 9.76894 11.233 9.03812 11.233 7.60812C11.233 6.17811 10.5286 5.44729 8.44734 5.44729H5.98143L5.98257 5.44616ZM8.86383 18.4439C11.0088 18.4439 11.7451 17.6182 11.7451 16.2831C11.7451 14.7254 10.6242 14.1855 8.86383 14.1855H5.98257V18.4439H8.86383Z" fill="white"/>
<path d="M37.5172 17.0783C37.5172 20.3833 35.7886 23.1801 29.8019 23.1801H20.3889V0.743847H29.6096C34.7008 0.743847 36.9414 2.96906 36.9414 6.369C36.9414 8.91162 35.6931 10.755 33.2601 11.6124C36.0458 12.3116 37.5183 14.0273 37.5183 17.0783H37.5172ZM25.991 5.44616V9.76894H28.4239C30.281 9.76894 31.2414 9.03812 31.2414 7.60812C31.2414 6.17811 30.5371 5.44729 28.4558 5.44729H25.9898L25.991 5.44616ZM28.8722 18.4439C31.0173 18.4439 31.7535 17.6182 31.7535 16.2831C31.7535 14.7254 30.6326 14.1855 28.8722 14.1855H25.991V18.4439H28.8722Z" fill="white"/>
<path d="M59.3816 23.1801H52.7224L47.6642 14.9807H45.9994V23.1801H40.3962V0.743847H49.3927C54.5157 0.743847 56.8519 3.54061 56.8519 7.703C56.8519 10.7539 55.475 12.6922 53.2026 13.5507L59.3816 23.1801ZM45.9994 5.70144V10.6274H48.2411C50.1301 10.6274 51.0587 9.89658 51.0587 8.17967C51.0587 6.46275 50.3224 5.70144 48.3049 5.70144H45.9994Z" fill="white"/>
<path d="M60.5013 20.2873C60.5013 18.4755 61.8782 17.1731 63.7353 17.1731C65.5925 17.1731 67.0012 18.4766 67.0012 20.2873C67.0012 22.098 65.6243 23.4659 63.7353 23.4659C61.8464 23.4659 60.5013 22.1307 60.5013 20.2873Z" fill="white"/>
</svg>
