<svg width="56" height="55" viewBox="0 0 56 55" fill="none" xmlns="http://www.w3.org/2000/svg">
<path d="M54.8613 9.52326C53.6062 8.54732 51.8936 8.73935 49.7736 10.0925C48.8519 10.681 45.9376 10.2823 44.159 9.38884C44.0361 9.14147 43.9041 8.89974 43.7664 8.66141C42.8652 7.10828 41.6464 5.75734 40.2001 4.69895C40.6223 4.18049 40.818 3.49711 40.7042 2.81373C40.5392 1.8186 39.7563 1.03018 38.7583 0.853967C38.2497 0.762474 37.2972 0.660814 36.1479 0.857356C36.0648 0.755696 35.9715 0.659685 35.8691 0.57158C35.2 -0.00787891 34.2726 -0.159238 33.4499 0.173978C32.791 0.442811 31.3595 1.12958 30.2864 2.38902C24.0971 3.44176 19.5545 8.71563 19.5545 15.0671C19.5545 16.6936 19.8583 18.2806 20.4591 19.7897C20.6162 20.2359 22.0648 24.0481 26.6336 26.9206C23.1868 26.5885 19.8059 27.1374 16.3432 28.5889C12.7223 30.1059 8.79636 30.4448 6.34296 29.453C5.76147 29.2181 5.00929 28.7968 4.72481 28.1247C4.26963 27.0505 3.14876 26.4563 1.99489 26.6766C0.842156 26.898 0.0228383 27.866 0.00349334 29.0306C-0.0636452 33.0506 0.711293 46.5962 13.5302 52.1005C14.8718 52.6765 16.2499 53.1645 17.6473 53.5678C20.9609 54.5245 24.3896 55.0012 27.7385 55.0012C33.5625 55.0012 39.1464 53.5678 43.4649 50.7484C48.0713 47.7404 50.6054 43.4368 50.5986 38.6317C50.5918 33.2122 48.3205 29.7354 46.4952 26.942C44.7143 24.2164 43.7892 22.6486 44.3604 20.3489C50.3733 19.0962 54.6508 16.5875 55.6545 13.6676C56.4875 11.2458 55.5145 10.0327 54.8613 9.52438V9.52326ZM53.5197 12.9435C52.7971 15.0456 48.8007 17.3352 42.6956 18.3834C42.5659 18.7754 42.4157 19.1583 42.2427 19.5277H42.245C40.282 26.4733 48.3307 29.0261 48.3432 38.6317C48.3569 49.5149 33.014 55.4055 18.8102 51.5662C17.3298 51.1663 15.8618 50.6603 14.4246 50.0436C3.16583 45.2114 2.18606 33.3771 2.25889 29.0678C2.26231 28.8521 2.56158 28.7945 2.64579 28.9933C4.1308 32.5017 10.7366 33.3692 17.2217 30.6515C21.4651 28.8736 24.9107 28.8611 27.6509 29.3107C28.3849 29.4304 29.1473 29.1864 29.6332 28.6262C31.1091 26.9228 28.0435 25.1573 28.0435 25.1573H28.0458C23.7512 22.5458 22.5893 19.0521 22.5893 19.0521H22.5916C22.0898 17.8221 21.8121 16.4779 21.8121 15.0693C21.8121 9.51761 26.0999 4.96214 31.5677 4.48208C32.2687 3.16389 33.8208 2.4455 34.3079 2.24783C34.3693 2.22298 34.4308 2.28172 34.4148 2.3461C34.078 3.63266 34.2703 4.00654 34.2703 4.00654C35.9556 2.81938 37.625 2.92895 38.3612 3.06111C38.4966 3.08483 38.5273 3.26329 38.4067 3.32881C37.4065 3.87325 36.7385 4.52839 36.2913 5.11801C39.0599 6.15155 41.2823 8.28866 42.4157 10.9905C42.4316 10.9962 42.4487 10.9962 42.4635 11.0052C44.39 12.2477 48.8519 13.3456 50.9946 11.9789C53.2671 10.5286 54.1661 11.0741 53.522 12.9458L53.5197 12.9435Z" fill="white"/>
</svg>
