<svg width="61" height="13" viewBox="0 0 61 13" fill="none" xmlns="http://www.w3.org/2000/svg">
<path d="M6.97004 6.54256H12.992V6.68036C12.975 10.47 10.7878 12.8127 7.19649 12.8127C3.36163 12.8127 0.827438 10.1085 0.827438 6.5595C0.827438 3.01046 3.41284 0.30632 7.00532 0.30632C9.41775 0.30632 11.3261 1.51155 12.1943 3.40693L11.3443 3.8034C10.6501 2.18363 9.05361 1.16817 7.00646 1.16817C3.91808 1.16817 1.78331 3.49391 1.78331 6.5595C1.78331 9.6251 3.86574 11.9508 7.19763 11.9508C10.0607 11.9508 11.7619 10.2113 12.0566 7.38633H6.97232V6.54256H6.97004Z" fill="white"/>
<path d="M24.0631 12.6399H22.9183L18.9446 7.40328H16.3763V12.6399H15.4568V0.479141H19.1005C21.9112 0.479141 22.9524 1.89221 22.9524 3.85536C22.9524 5.81852 21.8589 7.02488 19.9676 7.26547L24.0631 12.6399ZM16.3763 1.33986V6.54143H18.8752C20.8529 6.54143 21.9988 5.76656 21.9988 3.85423C21.9988 2.06277 21.027 1.33873 18.9446 1.33873H16.3763V1.33986Z" fill="white"/>
<path d="M25.2613 6.5595C25.2613 3.01159 27.882 0.30632 31.5427 0.30632C35.2035 0.30632 37.8242 3.01046 37.8242 6.5595C37.8242 10.1085 35.2035 12.8127 31.5427 12.8127C27.882 12.8127 25.2613 10.1085 25.2613 6.5595ZM36.8877 6.5595C36.8877 3.49391 34.7017 1.16817 31.5427 1.16817C28.3838 1.16817 26.2149 3.49391 26.2149 6.5595C26.2149 9.6251 28.4009 11.9508 31.5427 11.9508C34.6846 11.9508 36.8877 9.6251 36.8877 6.5595Z" fill="white"/>
<path d="M40.3766 7.76586V0.479141H41.296V7.73084C41.296 10.47 42.3372 11.9508 44.975 11.9508C47.6127 11.9508 48.654 10.47 48.654 7.73084V0.479141H49.5734V7.76586C49.5734 10.9704 48.1681 12.8127 44.975 12.8127C41.7819 12.8127 40.3766 10.9693 40.3766 7.76586Z" fill="white"/>
<path d="M52.6277 12.6399V0.479141H56.4454C59.2744 0.479141 60.3156 1.90915 60.3156 3.95815C60.3156 6.38668 58.8237 7.62693 56.359 7.62693H53.5482V12.6399H52.6288H52.6277ZM53.5482 6.78315H56.2383C58.2684 6.78315 59.362 5.95632 59.362 3.95815C59.362 2.1328 58.4596 1.33986 56.3078 1.33986H53.5482V6.78315Z" fill="white"/>
</svg>
