<svg width="61" height="13" viewBox="0 0 61 13" fill="none" xmlns="http://www.w3.org/2000/svg">
<path d="M6.96975 6.54256H12.9917V6.68036C12.9747 10.47 10.7875 12.8127 7.1962 12.8127C3.36134 12.8127 0.827148 10.1085 0.827148 6.5595C0.827148 3.01046 3.41255 0.30632 7.00503 0.30632C9.41746 0.30632 11.3258 1.51155 12.194 3.40693L11.344 3.8034C10.6499 2.18363 9.05332 1.16817 7.00617 1.16817C3.91779 1.16817 1.78302 3.49391 1.78302 6.5595C1.78302 9.6251 3.86545 11.9508 7.19734 11.9508C10.0604 11.9508 11.7616 10.2113 12.0563 7.38633H6.97203V6.54256H6.96975Z" fill="white"/>
<path d="M24.0623 12.6399H22.9175L18.9438 7.40328H16.3755V12.6399H15.4561V0.479141H19.0997C21.9105 0.479141 22.9517 1.89221 22.9517 3.85536C22.9517 5.81852 21.8581 7.02488 19.9669 7.26547L24.0623 12.6399ZM16.3755 1.33986V6.54143H18.8744C20.8522 6.54143 21.9981 5.76656 21.9981 3.85423C21.9981 2.06277 21.0263 1.33873 18.9438 1.33873H16.3755V1.33986Z" fill="white"/>
<path d="M25.2607 6.5595C25.2607 3.01159 27.8814 0.30632 31.5422 0.30632C35.2029 0.30632 37.8236 3.01046 37.8236 6.5595C37.8236 10.1085 35.2029 12.8127 31.5422 12.8127C27.8814 12.8127 25.2607 10.1085 25.2607 6.5595ZM36.8871 6.5595C36.8871 3.49391 34.7011 1.16817 31.5422 1.16817C28.3833 1.16817 26.2143 3.49391 26.2143 6.5595C26.2143 9.6251 28.4003 11.9508 31.5422 11.9508C34.684 11.9508 36.8871 9.6251 36.8871 6.5595Z" fill="white"/>
<path d="M40.376 7.76586V0.479141H41.2954V7.73084C41.2954 10.47 42.3367 11.9508 44.9744 11.9508C47.6121 11.9508 48.6534 10.47 48.6534 7.73084V0.479141H49.5728V7.76586C49.5728 10.9704 48.1675 12.8127 44.9744 12.8127C41.7813 12.8127 40.376 10.9693 40.376 7.76586Z" fill="white"/>
<path d="M52.627 12.6399V0.479141H56.4447C59.2737 0.479141 60.3149 1.90915 60.3149 3.95815C60.3149 6.38668 58.823 7.62693 56.3583 7.62693H53.5475V12.6399H52.6281H52.627ZM53.5475 6.78315H56.2376C58.2677 6.78315 59.3613 5.95632 59.3613 3.95815C59.3613 2.1328 58.4589 1.33986 56.307 1.33986H53.5475V6.78315Z" fill="white"/>
</svg>
