<svg width="60" height="5" viewBox="0 0 60 5" fill="none" xmlns="http://www.w3.org/2000/svg">
<path d="M0.377068 4.82345V0.914078H2.7144V1.40091H0.911894V2.6197H2.48453V3.10653H0.911894V4.33548H2.76447V4.82232H0.377068V4.82345Z" fill="white"/>
<path d="M6.12253 0.912949H6.6915L5.29069 4.82232H4.68872L3.28223 0.912949H3.8512L4.98914 4.17509L6.12139 0.912949H6.12253Z" fill="white"/>
<path d="M7.41637 4.82345V0.914078H9.75369V1.40091H7.9512V2.6197H9.52384V3.10653H7.9512V4.33548H9.80376V4.82232H7.41637V4.82345Z" fill="white"/>
<path d="M10.7357 4.82345V0.914078H11.2262L13.2847 3.84413V0.914078H13.8207V4.82345H13.3302L11.2717 1.89453V4.82345H10.7357Z" fill="white"/>
<path d="M15.8166 4.82345V1.40091H14.6229V0.914078H17.5463V1.40091H16.3526V4.82345H15.8166Z" fill="white"/>
<path d="M18.0538 4.03615L18.517 3.80346C18.6615 4.1796 19.0074 4.39083 19.5047 4.39083C20.002 4.39083 20.2853 4.18073 20.2853 3.74247C20.2853 3.33244 20.0339 3.24434 19.4262 3.12235C18.7685 2.98906 18.171 2.79591 18.171 1.98715C18.171 1.24504 18.7127 0.851952 19.4262 0.851952C20.0339 0.851952 20.5027 1.13434 20.72 1.61101L20.2512 1.85499C20.0953 1.5229 19.8108 1.34556 19.4364 1.34556C19.0017 1.34556 18.7218 1.57261 18.7218 1.97698C18.7218 2.4593 19.0291 2.52481 19.6253 2.63099C20.3058 2.75298 20.8361 3.00148 20.8361 3.7436C20.8361 4.48571 20.3343 4.88444 19.5081 4.88444C18.7776 4.88444 18.2473 4.57382 18.0516 4.03728L18.0538 4.03615Z" fill="white"/>
<path d="M22.4497 4.89348L23.7652 0.842918H24.2636L22.9481 4.89348H22.4497Z" fill="white"/>
<path d="M26.354 4.82344V0.914078H27.7434C28.6526 0.914078 28.9929 1.3851 28.9929 2.07751C28.9929 2.87497 28.5126 3.29065 27.7206 3.29065H26.8899V4.82458H26.354V4.82344ZM26.8899 2.80155H27.6262C28.1508 2.80155 28.441 2.66262 28.441 2.07638C28.441 1.56131 28.2395 1.40091 27.6319 1.40091H26.8899V2.80155Z" fill="white"/>
<path d="M32.8528 4.82344H32.1893L30.9899 3.23417H30.388V4.82344H29.852V0.914078H31.1914C32.1006 0.914078 32.4408 1.3738 32.4408 2.04927C32.4408 2.67504 32.1279 3.05118 31.5817 3.14606L32.8539 4.82458L32.8528 4.82344ZM30.3868 1.40091V2.74621H31.073C31.5475 2.74621 31.8878 2.64116 31.8878 2.04814C31.8878 1.51048 31.6261 1.39978 31.0787 1.39978H30.3868V1.40091Z" fill="white"/>
<path d="M34.158 4.89348L35.4734 0.842918H35.9719L34.6564 4.89348H34.158Z" fill="white"/>
<path d="M38.0076 4.82344V0.914078H39.2457C40.568 0.914078 41.2371 1.73413 41.2371 2.86933C41.2371 4.00452 40.6067 4.82458 39.2901 4.82458H38.0065L38.0076 4.82344ZM38.5425 4.33548H39.3015C40.2835 4.33548 40.6852 3.70971 40.6852 2.8682C40.6852 2.02668 40.2448 1.40091 39.2571 1.40091H38.5425V4.33548Z" fill="white"/>
<path d="M42.1736 4.82345V0.914078H42.7096V4.82345H42.1736Z" fill="white"/>
<path d="M45.6546 2.76315H47.6073V2.87385C47.6073 4.08698 46.8984 4.88444 45.7103 4.88444C44.5223 4.88444 43.6461 4.05422 43.6461 2.8682C43.6461 1.68217 44.528 0.851952 45.6546 0.851952C46.4136 0.851952 47.0713 1.22809 47.3501 1.84935L46.8483 2.08768C46.6753 1.61666 46.1951 1.34556 45.6546 1.34556C44.8398 1.34556 44.198 1.97134 44.198 2.8682C44.198 3.76506 44.8228 4.39083 45.7103 4.39083C46.4807 4.39083 46.9268 3.92546 47.0497 3.24999H45.6546V2.76202V2.76315Z" fill="white"/>
<path d="M48.5211 4.82345V0.914078H49.057V4.82345H48.5211Z" fill="white"/>
<path d="M51.0814 4.82345V1.40091H49.8877V0.914078H52.8111V1.40091H51.6174V4.82345H51.0814Z" fill="white"/>
<path d="M55.7003 4.82345L55.3487 3.87688H53.6475L53.2959 4.82345H52.7269L54.1994 0.914078H54.8025L56.2693 4.82345H55.7003ZM54.4964 1.51726L53.8273 3.38327H55.1723L54.4975 1.51726H54.4964Z" fill="white"/>
<path d="M56.9384 4.82345V0.914078H57.4744V4.33661H59.3099V4.82345H56.9384Z" fill="white"/>
</svg>
