<svg width="67" height="24" viewBox="0 0 67 24" fill="none" xmlns="http://www.w3.org/2000/svg">
<path d="M17.5082 17.0783C17.5082 20.3833 15.7796 23.1801 9.79293 23.1801H0.379883V0.743847H9.60062C14.6918 0.743847 16.9324 2.96906 16.9324 6.369C16.9324 8.91162 15.684 10.755 13.2511 11.6124C16.0368 12.3116 17.5093 14.0273 17.5093 17.0783H17.5082ZM5.98197 5.44616V9.76894H8.41488C10.272 9.76894 11.2324 9.03812 11.2324 7.60812C11.2324 6.17811 10.528 5.44729 8.44675 5.44729H5.98083L5.98197 5.44616ZM8.86323 18.4439C11.0082 18.4439 11.7445 17.6182 11.7445 16.2831C11.7445 14.7254 10.6236 14.1855 8.86323 14.1855H5.98197V18.4439H8.86323Z" fill="white"/>
<path d="M37.517 17.0783C37.517 20.3833 35.7884 23.1801 29.8017 23.1801H20.3887V0.743847H29.6094C34.7006 0.743847 36.9412 2.96906 36.9412 6.369C36.9412 8.91162 35.6928 10.755 33.2599 11.6124C36.0456 12.3116 37.5181 14.0273 37.5181 17.0783H37.517ZM25.9908 5.44616V9.76894H28.4237C30.2808 9.76894 31.2412 9.03812 31.2412 7.60812C31.2412 6.17811 30.5368 5.44729 28.4555 5.44729H25.9896L25.9908 5.44616ZM28.872 18.4439C31.017 18.4439 31.7533 17.6182 31.7533 16.2831C31.7533 14.7254 30.6324 14.1855 28.872 14.1855H25.9908V18.4439H28.872Z" fill="white"/>
<path d="M59.3809 23.1801H52.7217L47.6635 14.9807H45.9987V23.1801H40.3955V0.743847H49.3921C54.5151 0.743847 56.8513 3.54061 56.8513 7.703C56.8513 10.7539 55.4744 12.6922 53.2019 13.5507L59.3809 23.1801ZM45.9987 5.70144V10.6274H48.2405C50.1295 10.6274 51.058 9.89658 51.058 8.17967C51.058 6.46275 50.3218 5.70144 48.3042 5.70144H45.9987Z" fill="white"/>
<path d="M60.501 20.2873C60.501 18.4755 61.8779 17.1731 63.735 17.1731C65.5921 17.1731 67.0009 18.4766 67.0009 20.2873C67.0009 22.098 65.624 23.4659 63.735 23.4659C61.846 23.4659 60.501 22.1307 60.501 20.2873Z" fill="white"/>
</svg>
