<svg width="56" height="56" viewBox="0 0 56 56" fill="none" xmlns="http://www.w3.org/2000/svg">
<path d="M54.8612 9.60093C53.6061 8.6167 51.8935 8.81036 49.7735 10.1751C48.8518 10.7686 45.9376 10.3664 44.159 9.46537C44.0361 9.21589 43.9041 8.97212 43.7664 8.73175L42.4134 11.0773C42.4293 11.083 42.4464 11.083 42.4612 11.0921C44.3877 12.3451 48.8495 13.4524 50.9922 12.074C53.2647 10.6114 54.1637 11.1616 53.5196 13.0491C52.797 15.1691 48.8006 17.4782 42.6956 18.5353C42.5659 18.9306 42.4157 19.3168 42.2427 19.6893H42.245C40.282 26.6939 48.3306 29.2684 48.3431 38.9557C48.3568 49.9315 33.0141 55.8721 18.8104 52.0002L17.6475 54.0165C20.9611 54.9813 24.3897 55.462 27.7386 55.462C33.5626 55.462 39.1464 54.0165 43.4648 51.1731C48.0712 48.1396 50.6053 43.7994 50.5985 38.9535C50.5917 33.4878 48.3204 29.9815 46.4951 27.1644C44.7143 24.4156 43.7891 22.8345 44.3604 20.5151C50.3732 19.2518 54.6507 16.7218 55.6543 13.7771C56.4873 11.3347 55.5144 10.1113 54.8612 9.59865V9.60093Z" fill="#D72529"/>
<path d="M14.4256 50.467C3.1658 45.5925 2.18604 33.6576 2.25887 29.3118C2.26229 29.0942 2.56156 29.0361 2.64577 29.2366C4.13077 32.7748 10.7365 33.6497 17.2215 30.9089C21.4649 29.1158 24.9105 29.1033 27.6507 29.5567C28.3846 29.6775 29.147 29.4314 29.6329 28.8664C31.1088 27.1485 28.0432 25.368 28.0432 25.368H28.0455C23.751 22.7343 22.5891 19.2109 22.5891 19.2109H22.5914C22.0896 17.9704 21.8119 16.6148 21.8119 15.1943C21.8119 9.59535 26.0997 5.00115 31.5674 4.51701C32.2684 3.18762 33.8205 2.46312 34.3075 2.26376C34.369 2.2387 34.4304 2.29794 34.4145 2.36287C34.0777 3.66037 34.27 4.03742 34.27 4.03742C35.9553 2.84018 37.6246 2.95067 38.3609 3.08395C38.4963 3.10788 38.527 3.28786 38.4064 3.35393C37.4061 3.903 36.7382 4.56371 36.291 5.15835C39.0595 6.20067 41.2819 8.35595 42.4153 11.0808L43.7683 8.73529C42.8671 7.16895 41.6483 5.80653 40.202 4.73914C40.6242 4.21627 40.8199 3.52708 40.7061 2.8379C40.5411 1.8343 39.7582 1.03918 38.7603 0.861469C38.2516 0.769198 37.2992 0.666674 36.1499 0.864887C36.0668 0.762363 35.9735 0.665535 35.8711 0.576681C35.202 -0.00770352 34.2745 -0.16035 33.4518 0.1757C32.793 0.446818 31.3614 1.13942 30.2884 2.40958C24.0992 3.47127 19.5566 8.78997 19.5566 15.1954C19.5566 16.8358 19.8604 18.4363 20.4612 19.9582C20.6182 20.4082 22.0668 24.2528 26.6356 27.1497C23.1888 26.8148 19.808 27.3684 16.3453 28.8311C12.7244 30.3609 8.79856 30.7027 6.34518 29.7025C5.7637 29.4656 5.01153 29.0407 4.72704 28.3629C4.27187 27.2795 3.15101 26.6803 1.99715 26.9025C0.842148 27.1235 0.0228381 28.0997 0.00349331 29.2742C-0.0636446 33.3284 0.711286 46.9891 13.5301 52.5402C14.8717 53.1212 16.2497 53.6133 17.6471 54.02L18.8101 52.0037C17.3296 51.6004 15.8617 51.0901 14.4245 50.4681L14.4256 50.467Z" fill="#21224B"/>
</svg>
