<svg width="60" height="5" viewBox="0 0 60 5" fill="none" xmlns="http://www.w3.org/2000/svg">
<path d="M0.376953 4.26915V0.326546H2.71426V0.81752H0.911775V2.04667H2.4844V2.53764H0.911775V3.77703H2.76433V4.26801H0.376953V4.26915Z" fill="#20224A"/>
<path d="M6.1225 0.325409H6.69147L5.29068 4.26801H4.68871L3.28223 0.325409H3.85119L4.98912 3.61528L6.12136 0.325409H6.1225Z" fill="#20224A"/>
<path d="M7.41602 4.26915V0.326546H9.75332V0.81752H7.95084V2.04667H9.52346V2.53764H7.95084V3.77703H9.80339V4.26801H7.41602V4.26915Z" fill="#20224A"/>
<path d="M10.7354 4.26915V0.326546H11.2258L13.2843 3.28151V0.326546H13.8203V4.26915H13.3298L11.2713 1.31533V4.26915H10.7354Z" fill="#20224A"/>
<path d="M15.8167 4.26915V0.81752H14.623V0.326546H17.5464V0.81752H16.3527V4.26915H15.8167Z" fill="#20224A"/>
<path d="M18.054 3.47516L18.5172 3.2405C18.6617 3.61983 19.0076 3.83286 19.5049 3.83286C20.0022 3.83286 20.2855 3.62097 20.2855 3.17898C20.2855 2.76547 20.034 2.67662 19.4264 2.55359C18.7686 2.41917 18.1712 2.22438 18.1712 1.40874C18.1712 0.66032 18.7129 0.263893 19.4264 0.263893C20.034 0.263893 20.5029 0.548681 20.7202 1.0294L20.2514 1.27546C20.0955 0.94055 19.811 0.761702 19.4366 0.761702C19.0019 0.761702 18.722 0.990674 18.722 1.39849C18.722 1.88491 19.0292 1.95098 19.6255 2.05806C20.306 2.18109 20.8363 2.4317 20.8363 3.18012C20.8363 3.92854 20.3344 4.33067 19.5083 4.33067C18.7778 4.33067 18.2475 4.0174 18.0518 3.4763L18.054 3.47516Z" fill="#20224A"/>
<path d="M22.4492 4.33978L23.7647 0.254784H24.2631L22.9476 4.33978H22.4492Z" fill="#20224A"/>
<path d="M26.3535 4.26915V0.326546H27.7429C28.6521 0.326546 28.9924 0.801571 28.9924 1.49987C28.9924 2.30411 28.5122 2.72332 27.7202 2.72332H26.8895V4.27029H26.3535V4.26915ZM26.8895 2.23007H27.6257C28.1503 2.23007 28.4405 2.08995 28.4405 1.49873C28.4405 0.979277 28.2391 0.81752 27.6314 0.81752H26.8895V2.23007Z" fill="#20224A"/>
<path d="M32.8523 4.26915H32.1889L30.9895 2.66636H30.3875V4.26915H29.8516V0.326546H31.1909C32.1001 0.326546 32.4404 0.790179 32.4404 1.47139C32.4404 2.10248 32.1274 2.48182 31.5812 2.57751L32.8534 4.27029L32.8523 4.26915ZM30.3864 0.81752V2.17425H31.0726C31.5471 2.17425 31.8873 2.06831 31.8873 1.47025C31.8873 0.928015 31.6256 0.81638 31.0783 0.81638H30.3864V0.81752Z" fill="#20224A"/>
<path d="M34.1572 4.33978L35.4727 0.254784H35.9711L34.6556 4.33978H34.1572Z" fill="#20224A"/>
<path d="M38.007 4.26915V0.326546H39.2451C40.5673 0.326546 41.2364 1.15357 41.2364 2.29842C41.2364 3.44326 40.606 4.27029 39.2894 4.27029H38.0059L38.007 4.26915ZM38.5418 3.77703H39.3008C40.2829 3.77703 40.6845 3.14594 40.6845 2.29728C40.6845 1.44861 40.2442 0.81752 39.2564 0.81752H38.5418V3.77703Z" fill="#20224A"/>
<path d="M42.1729 4.26915V0.326546H42.7088V4.26915H42.1729Z" fill="#20224A"/>
<path d="M45.654 2.19134H47.6066V2.30298C47.6066 3.52643 46.8977 4.33067 45.7097 4.33067C44.5217 4.33067 43.6455 3.49339 43.6455 2.29728C43.6455 1.10117 44.5274 0.263893 45.654 0.263893C46.413 0.263893 47.0707 0.643233 47.3495 1.26977L46.8476 1.51013C46.6747 1.0351 46.1945 0.761702 45.654 0.761702C44.8392 0.761702 44.1974 1.39279 44.1974 2.29728C44.1974 3.20177 44.8221 3.83286 45.7097 3.83286C46.4801 3.83286 46.9262 3.36353 47.0491 2.68231H45.654V2.1902V2.19134Z" fill="#20224A"/>
<path d="M48.5205 4.26915V0.326546H49.0565V4.26915H48.5205Z" fill="#20224A"/>
<path d="M51.0804 4.26915V0.81752H49.8867V0.326546H52.8101V0.81752H51.6164V4.26915H51.0804Z" fill="#20224A"/>
<path d="M55.7 4.26915L55.3483 3.31454H53.6471L53.2955 4.26915H52.7266L54.199 0.326546H54.8021L56.2689 4.26915H55.7ZM54.496 0.934852L53.8269 2.81673H55.172L54.4972 0.934852H54.496Z" fill="#20224A"/>
<path d="M56.9375 4.26915V0.326546H57.4735V3.77817H59.309V4.26915H56.9375Z" fill="#20224A"/>
</svg>
