<svg width="106" height="24" viewBox="0 0 106 24" fill="none" xmlns="http://www.w3.org/2000/svg">
<path d="M0.630119 17.3254H3.14012C3.46012 17.3254 3.75012 17.3654 4.02012 17.4354C4.29012 17.5054 4.51012 17.6154 4.70012 17.7654C4.89012 17.9054 5.04012 18.0854 5.14012 18.3054C5.25012 18.5254 5.30012 18.7754 5.30012 19.0654C5.30012 19.2754 5.27012 19.4454 5.22012 19.5954C5.17012 19.7354 5.11012 19.8554 5.06012 19.9554C4.99012 20.0754 4.91012 20.1654 4.82012 20.2454C4.96012 20.3354 5.09012 20.4554 5.21012 20.5954C5.31012 20.7154 5.39012 20.8754 5.47012 21.0554C5.55012 21.2454 5.59012 21.4654 5.59012 21.7354C5.59012 22.0454 5.54012 22.3254 5.43012 22.5754C5.32012 22.8254 5.17012 23.0354 4.96012 23.2154C4.76012 23.3954 4.51012 23.5254 4.22012 23.6154C3.93012 23.7054 3.60012 23.7554 3.24012 23.7554H0.620117V17.3354L0.630119 17.3254ZM3.33012 19.2854C3.33012 18.9854 3.17012 18.8454 2.85012 18.8454H2.62012V19.7354H2.85012C3.17012 19.7354 3.33012 19.5854 3.33012 19.2954V19.2854ZM2.85012 22.2454C3.34012 22.2454 3.58012 22.0554 3.58012 21.6854C3.58012 21.3154 3.34012 21.1254 2.85012 21.1254H2.62012V22.2454H2.85012Z" fill="#21224B"/>
<path d="M6.21012 17.3254H9.99012V19.0154H8.26012V19.7254H9.96012V21.3254H8.26012V22.0654H10.0601V23.7554H6.21012V17.3254Z" fill="#21224B"/>
<path d="M10.8101 17.3354H12.5901C13.1901 17.3354 13.7301 17.4054 14.2001 17.5354C14.6701 17.6654 15.0701 17.8754 15.3901 18.1454C15.7101 18.4154 15.9601 18.7554 16.1301 19.1554C16.3001 19.5554 16.3901 20.0254 16.3901 20.5454C16.3901 21.0654 16.3001 21.5354 16.1301 21.9354C15.9601 22.3354 15.7101 22.6754 15.3901 22.9454C15.0701 23.2154 14.6701 23.4154 14.2001 23.5554C13.7301 23.6954 13.1901 23.7654 12.5901 23.7654H10.8101V17.3354ZM12.8601 21.9254C13.3401 21.9254 13.7101 21.8154 13.9801 21.5854C14.2401 21.3554 14.3701 21.0054 14.3701 20.5454C14.3701 20.0854 14.2401 19.7254 13.9801 19.5054C13.7201 19.2854 13.3401 19.1654 12.8601 19.1654V21.9254Z" fill="#21224B"/>
<path d="M19.0501 20.5454C19.0501 20.0354 19.1401 19.5654 19.3201 19.1554C19.5001 18.7454 19.7401 18.3854 20.0501 18.0954C20.3601 17.7954 20.7201 17.5754 21.1301 17.4154C21.5401 17.2554 21.9801 17.1754 22.4401 17.1754C22.8101 17.1754 23.1301 17.2154 23.4201 17.2854C23.7101 17.3554 23.9501 17.4354 24.1601 17.5254C24.4001 17.6254 24.6001 17.7454 24.7801 17.8654L23.7701 19.6454C23.6701 19.5654 23.5501 19.4954 23.4301 19.4254C23.3201 19.3754 23.1901 19.3254 23.0401 19.2754C22.8901 19.2254 22.7201 19.2054 22.5201 19.2054C22.3201 19.2054 22.1401 19.2454 21.9701 19.3154C21.8001 19.3854 21.6601 19.4854 21.5301 19.6054C21.4001 19.7254 21.3101 19.8654 21.2401 20.0354C21.1701 20.1954 21.1301 20.3754 21.1301 20.5554C21.1301 20.7354 21.1701 20.9154 21.2401 21.0754C21.3101 21.2354 21.4101 21.3854 21.5401 21.5054C21.6701 21.6254 21.8201 21.7254 21.9901 21.7954C22.1601 21.8654 22.3501 21.9054 22.5601 21.9054C22.7701 21.9054 22.9501 21.8754 23.1101 21.8254C23.2701 21.7754 23.4101 21.7154 23.5101 21.6554C23.6401 21.5854 23.7501 21.5054 23.8501 21.4054L24.8601 23.1854C24.6901 23.3254 24.4801 23.4554 24.2401 23.5654C24.0301 23.6554 23.7901 23.7354 23.5001 23.8154C23.2101 23.8954 22.8801 23.9354 22.5101 23.9354C22.0101 23.9354 21.5501 23.8554 21.1201 23.6854C20.6901 23.5154 20.3301 23.2954 20.0201 22.9954C19.7101 22.6954 19.4701 22.3454 19.3001 21.9354C19.1301 21.5254 19.0401 21.0654 19.0401 20.5654L19.0501 20.5454Z" fill="#21224B"/>
<path d="M25.2901 17.3254H27.4701V23.7454H25.2901V17.3254Z" fill="#21224B"/>
<path d="M28.3101 17.3254H30.0001L31.7701 19.8054V17.3254H33.7801V23.7454H32.0801L30.3201 21.2754V23.7454H28.3101V17.3254Z" fill="#21224B"/>
<path d="M34.6301 17.3254H38.4101V19.0154H36.6801V19.7254H38.3801V21.3254H36.6801V22.0654H38.4801V23.7554H34.6301V17.3254Z" fill="#21224B"/>
<path d="M39.2301 17.3254H40.9201L42.6001 19.7954L44.2701 17.3254H45.9701V23.7454H43.9201V21.4354L42.6101 23.3654L41.2901 21.4354V23.7454H39.2401V17.3254H39.2301Z" fill="#21224B"/>
<path d="M48.7201 17.3254H50.2601L52.7001 23.7454H50.6801L50.4701 23.1654H48.5201L48.3101 23.7454H46.2901L48.7301 17.3254H48.7201ZM49.9201 21.7554L49.4901 20.6254L49.0601 21.7554H49.9301H49.9201Z" fill="#21224B"/>
<path d="M55.1101 17.3254H58.8901V19.0154H57.1601V19.7254H58.8601V21.3254H57.1601V22.0654H58.9601V23.7554H55.1101V17.3254Z" fill="#21224B"/>
<path d="M61.0601 20.4354L59.3601 17.3354H61.6001L62.1801 18.3854L62.7601 17.3354H65.0101L63.3101 20.4354L65.1401 23.7554H62.9001L62.1901 22.4754L61.4901 23.7554H59.2501L61.0801 20.4354H61.0601Z" fill="#21224B"/>
<path d="M70.4501 19.7754C70.4501 20.2154 70.3701 20.5954 70.2201 20.9054C70.0701 21.2154 69.8601 21.4654 69.5901 21.6654C69.3201 21.8554 69.0101 21.9954 68.6601 22.0854C68.3001 22.1754 67.9201 22.2154 67.5101 22.2154V23.7454H65.4601V17.3254H67.5101C67.9201 17.3254 68.3001 17.3654 68.6601 17.4554C69.0201 17.5454 69.3301 17.6854 69.5901 17.8754C69.8601 18.0654 70.0701 18.3154 70.2201 18.6354C70.3701 18.9454 70.4501 19.3254 70.4501 19.7654V19.7754ZM67.5101 20.4854H67.6001C67.8701 20.4854 68.0601 20.4254 68.1801 20.2954C68.3001 20.1654 68.3601 19.9954 68.3601 19.7654C68.3601 19.5354 68.3001 19.3654 68.1801 19.2454C68.0601 19.1154 67.8701 19.0554 67.6001 19.0554H67.5101V20.4854Z" fill="#21224B"/>
<path d="M71.1101 17.3254H74.8901V19.0154H73.1601V19.7254H74.8601V21.3254H73.1601V22.0654H74.9601V23.7554H71.1101V17.3254Z" fill="#21224B"/>
<path d="M75.7101 17.3254H77.9301C78.3401 17.3254 78.7201 17.3754 79.0701 17.4854C79.4201 17.5954 79.7201 17.7554 79.9801 17.9654C80.2401 18.1754 80.4401 18.4354 80.5801 18.7454C80.7201 19.0554 80.8001 19.4154 80.8001 19.8154C80.8001 20.1354 80.7501 20.4054 80.6701 20.6354C80.5801 20.8554 80.4801 21.0454 80.3701 21.1954C80.2401 21.3654 80.1001 21.5054 79.9401 21.6154L81.1401 23.7354H78.7301L77.7701 22.1054V23.7354H75.7201V17.3154L75.7101 17.3254ZM77.7601 20.4854H77.8701C78.1101 20.4854 78.3201 20.4354 78.4901 20.3254C78.6601 20.2154 78.7501 20.0354 78.7501 19.7754C78.7501 19.5154 78.6601 19.3354 78.4901 19.2254C78.3201 19.1154 78.1101 19.0654 77.8701 19.0654H77.7601V20.4954V20.4854Z" fill="#21224B"/>
<path d="M81.5001 17.3254H83.6801V23.7454H81.5001V17.3254Z" fill="#21224B"/>
<path d="M84.5201 17.3254H88.3001V19.0154H86.5701V19.7254H88.2701V21.3254H86.5701V22.0654H88.3701V23.7554H84.5201V17.3254Z" fill="#21224B"/>
<path d="M89.1301 17.3254H90.8201L92.5901 19.8054V17.3254H94.6001V23.7454H92.9001L91.1401 21.2754V23.7454H89.1301V17.3254Z" fill="#21224B"/>
<path d="M95.3001 20.5454C95.3001 20.0354 95.3901 19.5654 95.5701 19.1554C95.7501 18.7454 95.9901 18.3854 96.3001 18.0954C96.6101 17.8054 96.9701 17.5754 97.3801 17.4154C97.7901 17.2554 98.2301 17.1754 98.6901 17.1754C99.0601 17.1754 99.3801 17.2154 99.6701 17.2854C99.9601 17.3554 100.2 17.4354 100.41 17.5254C100.65 17.6254 100.85 17.7454 101.03 17.8654L100.02 19.6454C99.9201 19.5654 99.8001 19.4954 99.6801 19.4254C99.5701 19.3754 99.4401 19.3254 99.2901 19.2754C99.1401 19.2254 98.9701 19.2054 98.7701 19.2054C98.5701 19.2054 98.3901 19.2454 98.2201 19.3154C98.0501 19.3854 97.9101 19.4854 97.7801 19.6054C97.6501 19.7254 97.5601 19.8654 97.4901 20.0354C97.4201 20.1954 97.3801 20.3754 97.3801 20.5554C97.3801 20.7354 97.4201 20.9154 97.4901 21.0754C97.5601 21.2354 97.6601 21.3854 97.7901 21.5054C97.9201 21.6254 98.0701 21.7254 98.2401 21.7954C98.4101 21.8654 98.6001 21.9054 98.8101 21.9054C99.0201 21.9054 99.2001 21.8754 99.3601 21.8254C99.5201 21.7754 99.6601 21.7154 99.7601 21.6554C99.8901 21.5854 100 21.5054 100.1 21.4054L101.11 23.1854C100.94 23.3254 100.73 23.4554 100.49 23.5654C100.28 23.6554 100.04 23.7354 99.7501 23.8154C99.4601 23.8954 99.1301 23.9354 98.7601 23.9354C98.2601 23.9354 97.8001 23.8554 97.3701 23.6854C96.9401 23.5154 96.5801 23.2954 96.2701 22.9954C95.9601 22.6954 95.7201 22.3454 95.5501 21.9354C95.3801 21.5254 95.2901 21.0654 95.2901 20.5654L95.3001 20.5454Z" fill="#21224B"/>
<path d="M101.53 17.3254H105.31V19.0154H103.58V19.7254H105.28V21.3254H103.58V22.0654H105.38V23.7554H101.53V17.3254Z" fill="#21224B"/>
<path d="M0.74012 0.385437H4.34012L7.90012 5.62543L11.4401 0.385437H15.0401V14.0354H10.6801V9.12543L7.90012 13.2154L5.10012 9.12543V14.0354H0.74012V0.385437Z" fill="#21224B"/>
<path d="M16.1701 7.21542C16.1701 6.23542 16.3601 5.30542 16.7301 4.43542C17.1101 3.56542 17.6201 2.80543 18.2601 2.15543C18.9001 1.50543 19.6701 0.995427 20.5401 0.625427C21.4101 0.245427 22.3401 0.0654297 23.3201 0.0654297C24.3001 0.0654297 25.2301 0.255427 26.1001 0.625427C26.9701 1.00543 27.7301 1.51543 28.3801 2.15543C29.0301 2.80543 29.5401 3.56542 29.9101 4.43542C30.2901 5.30542 30.4701 6.23542 30.4701 7.21542C30.4701 8.19542 30.2801 9.12542 29.9101 9.99542C29.5301 10.8654 29.0201 11.6254 28.3801 12.2754C27.7401 12.9254 26.9701 13.4354 26.1001 13.8054C25.2301 14.1854 24.3001 14.3654 23.3201 14.3654C22.3401 14.3654 21.4101 14.1754 20.5401 13.8054C19.6701 13.4254 18.9101 12.9154 18.2601 12.2754C17.6101 11.6254 17.1001 10.8654 16.7301 9.99542C16.3501 9.12542 16.1701 8.19542 16.1701 7.21542ZM20.4701 7.21542C20.4701 7.61542 20.5401 7.98543 20.7001 8.33543C20.8501 8.68543 21.0501 8.98542 21.3101 9.24542C21.5701 9.50542 21.8701 9.70542 22.2201 9.85542C22.5701 10.0054 22.9401 10.0854 23.3401 10.0854C23.7401 10.0854 24.1101 10.0154 24.4601 9.85542C24.8101 9.70542 25.1101 9.50542 25.3701 9.24542C25.6301 8.98542 25.8301 8.68543 25.9801 8.33543C26.1301 7.98543 26.2101 7.61542 26.2101 7.21542C26.2101 6.81542 26.1301 6.44543 25.9801 6.09543C25.8301 5.74543 25.6301 5.44543 25.3701 5.18542C25.1101 4.92542 24.8101 4.72542 24.4601 4.57542C24.1101 4.42542 23.7401 4.34543 23.3401 4.34543C22.9401 4.34543 22.5701 4.42542 22.2201 4.57542C21.8701 4.72542 21.5701 4.92542 21.3101 5.18542C21.0501 5.44543 20.8501 5.74543 20.7001 6.09543C20.5501 6.44543 20.4701 6.81542 20.4701 7.21542Z" fill="#21224B"/>
<path d="M34.2401 0.385437L36.5501 6.31543L38.8801 0.385437H43.6501L38.3301 14.0354H34.7901L29.4701 0.385437H34.2401Z" fill="#21224B"/>
<path d="M44.9201 0.385437H48.8101L46.6201 5.91544H43.1401L44.9201 0.385437Z" fill="#21224B"/>
<path d="M49.5301 0.385437H54.1601V14.0354H49.5301V0.385437Z" fill="#21224B"/>
<path d="M55.5901 0.385437H59.1701L62.9401 5.64543V0.385437H67.2201V14.0354H63.6201L59.8701 8.79543V14.0354H55.5901V0.385437Z" fill="#21224B"/>
<path d="M84.0201 0.615433H92.0601V4.19543H88.3801V5.70543H92.0001V9.10542H88.3801V10.6854H92.2101V14.2654H84.0201V0.615433Z" fill="#21224B"/>
<path d="M93.4301 0.625427H97.2201C98.5001 0.625427 99.6501 0.765435 100.65 1.05544C101.65 1.34544 102.5 1.77543 103.19 2.34543C103.88 2.91543 104.4 3.63543 104.77 4.48543C105.13 5.33543 105.31 6.32543 105.31 7.44543C105.31 8.56543 105.13 9.54543 104.77 10.4054C104.41 11.2554 103.88 11.9754 103.19 12.5454C102.5 13.1154 101.66 13.5554 100.65 13.8454C99.6501 14.1354 98.5001 14.2854 97.2201 14.2854H93.4301V0.625427ZM97.7901 10.3854C98.8101 10.3854 99.6001 10.1454 100.16 9.65543C100.72 9.17543 101 8.43542 101 7.43542C101 6.43542 100.72 5.70543 100.16 5.22543C99.6001 4.74543 98.8101 4.50543 97.7901 4.50543V10.3854Z" fill="#21224B"/>
<path d="M82.8401 8.51543C82.6701 8.11543 82.4801 7.79543 82.2801 7.53543C82.0301 7.23543 81.7601 6.98543 81.4601 6.79543C81.6501 6.63543 81.8201 6.42542 81.9701 6.18542C82.0901 5.98542 82.2101 5.72544 82.3201 5.41544C82.4301 5.10544 82.4801 4.73543 82.4801 4.29543C82.4801 3.68543 82.3701 3.14542 82.1401 2.68542C81.9101 2.22542 81.6001 1.84543 81.2001 1.53543C80.8001 1.22543 80.3101 0.995434 79.7501 0.835434C79.1801 0.675434 78.5601 0.595428 77.8801 0.595428H72.5401V14.2454H78.1101C78.8701 14.2454 79.5701 14.1454 80.1901 13.9454C80.8101 13.7454 81.3401 13.4654 81.7701 13.0854C82.2001 12.7054 82.5301 12.2554 82.7601 11.7254C82.9901 11.1954 83.1101 10.5954 83.1101 9.94543C83.1101 9.37543 83.0201 8.88542 82.8501 8.49542L82.8401 8.51543ZM75.4901 3.56543C75.5201 3.47543 75.5301 3.41542 75.6301 3.43542C76.1901 3.52542 77.5901 3.17543 78.9101 3.45543C79.0001 3.47543 79.0201 3.48544 79.0601 3.55544C79.3101 3.98544 79.2601 5.07543 79.0501 5.61543C79.0101 5.70543 79.0101 5.75543 78.9201 5.78543C78.0201 6.03543 76.7301 5.55544 75.7001 5.77544C75.6101 5.79544 75.6001 5.70544 75.5401 5.63544C75.3001 5.30544 75.1901 4.36542 75.4901 3.57542V3.56543ZM79.5501 11.8754C79.5001 12.0754 79.5001 12.1954 79.3801 12.2554C78.2301 12.8154 76.5701 11.7254 75.2501 12.2254C75.1401 12.2654 75.1201 12.0754 75.0501 11.9154C74.7401 11.1854 74.6001 9.05543 74.9801 7.25543C75.0201 7.04543 75.0301 6.92543 75.1601 6.95543C75.8801 7.15543 77.6701 6.37542 79.3601 6.99542C79.4701 7.03542 79.5001 7.05543 79.5501 7.23543C79.8801 8.21543 79.8101 10.6554 79.5401 11.8754H79.5501Z" fill="#21224B"/>
</svg>
