<svg width="593" height="455" viewBox="0 0 593 455" fill="none" xmlns="http://www.w3.org/2000/svg">
<mask id="path-1-inside-1_86_477" fill="white">
<path fill-rule="evenodd" clip-rule="evenodd" d="M42.3634 349.196C14.1098 309.465 0 255.25 0 186.569V0H239.323V225.01H124.883C126.717 252.109 135.699 275.591 151.846 295.457C167.976 315.306 197.147 335.273 239.323 355.326L187.604 454.451C119.025 424.007 70.6 388.928 42.3634 349.196ZM404.803 0C473.382 30.4439 521.807 65.5231 550.044 105.255C578.298 144.986 592.407 199.201 592.407 267.882V454.451H353.084V229.441H467.525C465.691 202.342 456.709 178.86 440.561 158.994C424.431 139.145 395.278 119.178 353.084 99.1252L404.803 0Z"/>
</mask>
<path d="M42.3634 349.196L43.9936 348.038L43.9933 348.037L42.3634 349.196ZM0 0V-2H-2V0H0ZM239.323 0H241.323V-2H239.323V0ZM239.323 225.01V227.01H241.323V225.01H239.323ZM124.883 225.01V223.01H122.743L122.887 225.145L124.883 225.01ZM151.846 295.457L153.398 294.196L153.398 294.195L151.846 295.457ZM239.323 355.326L241.096 356.251L242.057 354.411L240.182 353.52L239.323 355.326ZM187.604 454.451L186.793 456.279L188.509 457.041L189.378 455.376L187.604 454.451ZM550.044 105.255L548.414 106.413L548.414 106.414L550.044 105.255ZM404.803 0L405.614 -1.82798L403.898 -2.58979L403.03 -0.925153L404.803 0ZM592.407 454.451V456.451H594.407V454.451H592.407ZM353.084 454.451H351.084V456.451H353.084V454.451ZM353.084 229.441V227.441H351.084V229.441H353.084ZM467.525 229.441V231.441H469.664L469.52 229.306L467.525 229.441ZM440.561 158.994L439.009 160.256L439.009 160.256L440.561 158.994ZM353.084 99.1252L351.311 98.2L350.351 100.04L352.225 100.932L353.084 99.1252ZM-2 186.569C-2 255.5 12.1586 310.172 40.7335 350.355L43.9933 348.037C16.061 308.758 2 254.999 2 186.569H-2ZM-2 0V186.569H2V0H-2ZM239.323 -2H0V2H239.323V-2ZM241.323 225.01V0H237.323V225.01H241.323ZM124.883 227.01H239.323V223.01H124.883V227.01ZM153.398 294.195C137.528 274.671 128.686 251.588 126.878 224.875L122.887 225.145C124.747 252.629 133.869 276.512 150.294 296.718L153.398 294.195ZM240.182 353.52C198.088 333.506 169.244 313.694 153.398 294.196L150.294 296.718C166.709 316.917 196.205 337.04 238.465 357.132L240.182 353.52ZM189.378 455.376L241.096 356.251L237.55 354.401L185.831 453.526L189.378 455.376ZM40.7331 350.355C69.261 390.496 118.048 425.762 186.793 456.279L188.416 452.623C120.002 422.253 71.9389 387.359 43.9936 348.038L40.7331 350.355ZM551.674 104.096C523.146 63.9546 474.359 28.6892 405.614 -1.82798L403.991 1.82798C472.406 32.1986 520.468 67.0916 548.414 106.413L551.674 104.096ZM594.407 267.882C594.407 198.951 580.249 144.279 551.674 104.096L548.414 106.414C576.346 145.694 590.407 199.452 590.407 267.882H594.407ZM594.407 454.451V267.882H590.407V454.451H594.407ZM353.084 456.451H592.407V452.451H353.084V456.451ZM351.084 229.441V454.451H355.084V229.441H351.084ZM467.525 227.441H353.084V231.441H467.525V227.441ZM439.009 160.256C454.879 179.78 463.721 202.863 465.529 229.576L469.52 229.306C467.66 201.822 458.538 177.94 442.113 157.733L439.009 160.256ZM352.225 100.932C394.336 120.945 423.163 140.757 439.009 160.256L442.113 157.733C425.699 137.534 396.219 117.411 353.942 97.3188L352.225 100.932ZM403.03 -0.925153L351.311 98.2L354.857 100.05L406.576 0.925153L403.03 -0.925153Z" fill="#E6E7E8" mask="url(#path-1-inside-1_86_477)"/>
</svg>
