<svg width="54" height="42" viewBox="0 0 54 42" fill="none" xmlns="http://www.w3.org/2000/svg">
<path d="M0.340759 17.3355C0.340759 23.5245 1.60298 28.3901 4.14777 31.9732C6.69256 35.5562 11.0492 38.7118 17.2178 41.4398L21.8799 32.5229C18.0932 30.711 15.467 28.9194 14.0012 27.1279C12.5558 25.3364 11.7414 23.2191 11.5786 20.7965H21.8799V0.539917H0.340759V17.3355Z" fill="#E6E7E8"/>
<path d="M49.8523 10.0269C47.3075 6.44385 42.9508 3.28831 36.7822 0.560295L32.1201 9.47725C35.9272 11.2891 38.533 13.0807 39.9988 14.8722C41.4443 16.6637 42.2586 18.781 42.4215 21.2036H32.1201V41.4602H53.6593V24.6646C53.6593 18.4756 52.397 13.61 49.8523 10.0269Z" fill="#E6E7E8"/>
</svg>
