<svg width="71" height="81" viewBox="0 0 71 81" fill="none" xmlns="http://www.w3.org/2000/svg">
<g clip-path="url(#clip0_984_1466)">
<path d="M45.5223 36.2705L40.8153 40.953V0.774963C40.8153 0.349279 40.4642 0 40.0363 0C39.6084 0 39.2573 0.349279 39.2573 0.774963V40.953L34.5503 36.2705C34.2431 35.9648 33.7603 35.9648 33.4531 36.2705C33.1459 36.5761 33.1459 37.0672 33.4531 37.3619L39.4877 43.3652C39.5645 43.4416 39.6413 43.4962 39.74 43.5289C39.8388 43.5726 39.9375 43.5835 40.0363 43.5835C40.135 43.5835 40.2338 43.5617 40.3325 43.5289C40.4313 43.4852 40.5191 43.4307 40.5849 43.3652L46.6195 37.3619C46.9267 37.0563 46.9267 36.5652 46.6195 36.2705C46.3123 35.9648 45.8295 35.9648 45.5223 36.2705Z" fill="white"/>
<path d="M22.4604 24.253C22.1532 23.9474 21.6704 23.9474 21.3632 24.253C21.056 24.5586 21.056 25.0498 21.3632 25.3445L27.3978 31.3477C27.4746 31.4241 27.5515 31.4787 27.6502 31.5115C27.7489 31.5551 27.8477 31.566 27.9464 31.566C28.0452 31.566 28.1439 31.5442 28.2427 31.5115C28.3414 31.4678 28.4292 31.4132 28.495 31.3477L34.5297 25.3445C34.8369 25.0389 34.8369 24.5477 34.5297 24.253C34.2224 23.9474 33.7397 23.9474 33.4325 24.253L28.7255 28.9355V5.28278C28.7255 4.85709 28.3744 4.50781 27.9464 4.50781C27.5185 4.50781 27.1674 4.85709 27.1674 5.28278V28.9464L22.4604 24.2639V24.253Z" fill="white"/>
<path d="M57.5926 24.253L52.8856 28.9355V5.28278C52.8856 4.85709 52.5345 4.50781 52.1066 4.50781C51.6787 4.50781 51.3276 4.85709 51.3276 5.28278V28.9464L46.6206 24.2639C46.3134 23.9583 45.8306 23.9583 45.5234 24.2639C45.2162 24.5695 45.2162 25.0607 45.5234 25.3554L51.558 31.3586C51.6348 31.435 51.7116 31.4896 51.8104 31.5224C51.9091 31.566 52.0079 31.5769 52.1066 31.5769C52.2053 31.5769 52.3041 31.5551 52.4028 31.5224C52.5016 31.4787 52.5894 31.4241 52.6552 31.3586L58.6898 25.3554C58.997 25.0498 58.997 24.5586 58.6898 24.2639C58.3826 23.9583 57.8998 23.9583 57.5926 24.2639V24.253Z" fill="white"/>
<path d="M27.9576 70.4452H15.8774C12.9808 70.4452 10.6218 68.0985 10.6218 65.2169V50.1979C10.6218 49.7722 10.2707 49.423 9.84275 49.423H3.89591C2.75482 49.423 2.04164 48.6807 1.7454 47.9931C1.44915 47.2945 1.42721 46.2576 2.25011 45.439L13.4087 34.2621C13.5513 34.1202 13.6391 33.8909 13.6391 33.6836C13.6391 25.9667 16.7661 18.7955 22.4496 13.48C22.7678 13.1853 22.7788 12.6941 22.4825 12.3885C22.1863 12.0719 21.6925 12.061 21.3853 12.3557C15.4604 17.8896 12.1688 25.3445 12.081 33.3998L1.14193 44.3366C0.011816 45.4717 -0.306373 47.0981 0.308061 48.5825C0.922494 50.056 2.294 50.962 3.88494 50.962H9.05277V65.206C9.05277 68.9498 12.114 71.9842 15.8664 71.9842H27.1676V80.225C27.1676 80.6507 27.5187 81 27.9466 81C28.3745 81 28.7256 80.6507 28.7256 80.225V71.2201C28.7256 70.7945 28.3745 70.4452 27.9466 70.4452H27.9576Z" fill="white"/>
<path d="M58.5902 9.80158C58.2391 9.55053 57.7563 9.63785 57.504 9.98713C57.2516 10.3364 57.3394 10.8167 57.6905 11.0677C65.0527 16.2851 69.4416 24.7333 69.4416 33.6726C69.4416 41.3895 66.3145 48.5606 60.631 53.8762C60.4774 54.0181 60.3896 54.2255 60.3896 54.4438V80.225C60.3896 80.6507 60.7407 80.9999 61.1686 80.9999C61.5966 80.9999 61.9477 80.6507 61.9477 80.225V54.7713C67.7958 49.1828 70.9996 41.706 70.9996 33.6726C70.9996 24.2312 66.3584 15.3136 58.6012 9.80158H58.5902Z" fill="white"/>
</g>
<defs>
<clipPath id="clip0_984_1466">
<rect width="71" height="81" fill="white"/>
</clipPath>
</defs>
</svg>
