<svg width="19" height="19" viewBox="0 0 19 19" fill="none" xmlns="http://www.w3.org/2000/svg">
<path d="M9.48716 5.04644C6.99962 5.01463 4.95741 7.0123 4.9256 9.49985C5.00195 12.0192 7.10777 13.9978 9.62713 13.9151C12.032 13.8387 13.9724 11.9047 14.0424 9.49985C14.0106 7.0123 11.9747 5.01463 9.48716 5.04644ZM9.48716 12.6554C7.71853 12.6872 6.26163 11.2748 6.22982 9.49985C6.29344 7.70576 7.80759 6.29976 9.60168 6.36974C11.3067 6.43336 12.6682 7.80119 12.7318 9.49985C12.7 11.2685 11.2494 12.6745 9.4808 12.6554H9.48716Z" fill="#21224B"/>
<path d="M15.0094 0.510327H4.07946C2.03089 0.497603 0.35768 2.15173 0.351318 4.20029V14.7994C0.364042 16.848 2.03089 18.5021 4.07946 18.4894H15.0094C17.058 18.5021 18.7248 16.848 18.7375 14.7994V4.20029C18.7248 2.15173 17.058 0.497603 15.0094 0.510327ZM17.4333 14.7994C17.4206 16.1291 16.3454 17.1979 15.0157 17.1979H4.07946C2.7498 17.1979 1.66825 16.1291 1.66189 14.7994V4.20029C1.67462 2.87063 2.7498 1.80182 4.07946 1.80182H15.0094C16.339 1.80182 17.4206 2.87063 17.427 4.20029V14.7994H17.4333Z" fill="#21224B"/>
<path d="M14.6468 3.0933C13.8197 3.0933 13.1453 3.76131 13.139 4.58838C13.1326 5.4218 13.8006 6.10253 14.634 6.1089C15.4675 6.11526 16.1482 5.44725 16.1546 4.61382C16.1546 3.77404 15.4802 3.0933 14.6468 3.0933Z" fill="#21224B"/>
</svg>
