<svg width="17" height="13" viewBox="0 0 17 13" fill="none" xmlns="http://www.w3.org/2000/svg">
<path d="M0.09021 5.35462C0.09021 7.28867 0.484655 8.80919 1.27991 9.9289C2.07516 11.0486 3.43663 12.0347 5.36432 12.8872L6.82122 10.1007C5.63788 9.53446 4.81718 8.9746 4.35912 8.41474C3.90742 7.85489 3.65294 7.19324 3.60204 6.43616H6.82122V0.105957H0.09021V5.35462Z" fill="#21224B"/>
<path d="M15.5626 3.07065C14.7674 1.95094 13.4059 0.964829 11.4782 0.112319L10.0213 2.89888C11.211 3.4651 12.0253 4.02496 12.4834 4.58481C12.9351 5.14467 13.1896 5.80632 13.2405 6.5634H10.0213V12.8936H16.7523V7.64494C16.7523 5.71089 16.3579 4.19037 15.5626 3.07065Z" fill="#21224B"/>
</svg>
