<svg width="54" height="41" viewBox="0 0 54 41" fill="none" xmlns="http://www.w3.org/2000/svg">
<path d="M0.340759 16.8354C0.340759 23.0244 1.60298 27.89 4.14777 31.4731C6.69256 35.0561 11.0492 38.2117 17.2178 40.9397L21.8799 32.0227C18.0932 30.2108 15.467 28.4193 14.0012 26.6278C12.5558 24.8362 11.7414 22.719 11.5786 20.2963H21.8799V0.0397949H0.340759V16.8354Z" fill="#BCBEC0"/>
<path d="M49.8523 9.5268C47.3075 5.94373 42.9508 2.78819 36.7822 0.0601731L32.1201 8.97712C35.9272 10.789 38.533 12.5805 39.9988 14.3721C41.4443 16.1636 42.2586 18.2809 42.4215 20.7035H32.1201V40.9601H53.6593V24.1644C53.6593 17.9755 52.397 13.1099 49.8523 9.5268Z" fill="#BCBEC0"/>
</svg>
