<svg width="25" height="17" viewBox="0 0 25 17" fill="none" xmlns="http://www.w3.org/2000/svg">
<path d="M24.5037 2.71055C24.2237 1.6799 23.4158 0.865564 22.3788 0.585635C20.4956 0.0703125 12.9566 0.0703125 12.9566 0.0703125C12.9566 0.0703125 5.41763 0.0703127 3.53448 0.566549C2.52292 0.846478 1.6895 1.6799 1.40957 2.71055C0.91333 4.5937 0.91333 8.49998 0.91333 8.49998C0.91333 8.49998 0.91333 12.4253 1.40957 14.2894C1.6895 15.3201 2.49747 16.1344 3.53448 16.4143C5.43672 16.9296 12.9566 16.9296 12.9566 16.9296C12.9566 16.9296 20.4956 16.9296 22.3788 16.4334C23.4094 16.1535 24.2237 15.3455 24.5037 14.3085C24.9999 12.4253 24.9999 8.51906 24.9999 8.51906C24.9999 8.51906 25.019 4.5937 24.5037 2.71055ZM10.5645 12.1072V4.88635L16.8311 8.49361L10.5645 12.1009V12.1072Z" fill="#21224B"/>
</svg>
